<svg width="64" height="64" viewBox="0 0 64 64" fill="none" xmlns="http://www.w3.org/2000/svg">
<path d="M64 36V28C64 27.4696 63.7893 26.9609 63.4142 26.5858C63.0391 26.2107 62.5304 26 62 26H59.87C59.4484 25.9907 59.0405 25.8483 58.7047 25.5933C58.3688 25.3383 58.1222 24.9836 58 24.58C57.4341 22.5991 56.6422 20.6899 55.64 18.89C55.4407 18.5113 55.3681 18.0787 55.4329 17.6557C55.4977 17.2327 55.6965 16.8417 56 16.54L57.46 15C57.646 14.8143 57.7935 14.5937 57.8941 14.3509C57.9948 14.1081 58.0466 13.8478 58.0466 13.585C58.0466 13.3222 57.9948 13.0619 57.8941 12.8191C57.7935 12.5763 57.646 12.3557 57.46 12.17L51.8 6.54C51.6143 6.35405 51.3937 6.20653 51.1509 6.10588C50.9081 6.00523 50.6478 5.95343 50.385 5.95343C50.1222 5.95343 49.8619 6.00523 49.6191 6.10588C49.3763 6.20653 49.1557 6.35405 48.97 6.54L47.46 8.05C47.1572 8.3519 46.7655 8.54878 46.3426 8.61177C45.9197 8.67477 45.4877 8.60054 45.11 8.4C43.3119 7.38398 41.4026 6.57866 39.42 6C39.0164 5.87781 38.6617 5.63117 38.4067 5.29532C38.1517 4.95947 38.0093 4.5516 38 4.13V2C38 1.46957 37.7893 0.960859 37.4142 0.585786C37.0391 0.210714 36.5304 0 36 0L28 0C27.4696 0 26.9609 0.210714 26.5858 0.585786C26.2107 0.960859 26 1.46957 26 2V4.13C25.9907 4.5516 25.8483 4.95947 25.5933 5.29532C25.3383 5.63117 24.9836 5.87781 24.58 6C22.5974 6.57866 20.6881 7.38398 18.89 8.4C18.5123 8.60054 18.0803 8.67477 17.6574 8.61177C17.2345 8.54878 16.8428 8.3519 16.54 8.05L15 6.54C14.8143 6.35405 14.5937 6.20653 14.3509 6.10588C14.1081 6.00523 13.8478 5.95343 13.585 5.95343C13.3222 5.95343 13.0619 6.00523 12.8191 6.10588C12.5763 6.20653 12.3557 6.35405 12.17 6.54L6.54 12.2C6.35405 12.3857 6.20653 12.6063 6.10588 12.8491C6.00523 13.0919 5.95343 13.3522 5.95343 13.615C5.95343 13.8778 6.00523 14.1381 6.10588 14.3809C6.20653 14.6237 6.35405 14.8443 6.54 15.03L8.05 16.54C8.3519 16.8428 8.54878 17.2345 8.61177 17.6574C8.67477 18.0803 8.60054 18.5123 8.4 18.89C7.38398 20.6881 6.57866 22.5974 6 24.58C5.87781 24.9836 5.63117 25.3383 5.29532 25.5933C4.95947 25.8483 4.5516 25.9907 4.13 26H2C1.46957 26 0.960859 26.2107 0.585786 26.5858C0.210714 26.9609 0 27.4696 0 28L0 36C0 36.5304 0.210714 37.0391 0.585786 37.4142C0.960859 37.7893 1.46957 38 2 38H4.13C4.5516 38.0093 4.95947 38.1517 5.29532 38.4067C5.63117 38.6617 5.87781 39.0164 6 39.42C6.57866 41.4026 7.38398 43.3119 8.4 45.11C8.60054 45.4877 8.67477 45.9197 8.61177 46.3426C8.54878 46.7655 8.3519 47.1572 8.05 47.46L6.54 49C6.35405 49.1857 6.20653 49.4063 6.10588 49.6491C6.00523 49.8919 5.95343 50.1522 5.95343 50.415C5.95343 50.6778 6.00523 50.9381 6.10588 51.1809C6.20653 51.4237 6.35405 51.6443 6.54 51.83L12.2 57.49C12.3857 57.676 12.6063 57.8235 12.8491 57.9241C13.0919 58.0248 13.3522 58.0766 13.615 58.0766C13.8778 58.0766 14.1381 58.0248 14.3809 57.9241C14.6237 57.8235 14.8443 57.676 15.03 57.49L16.54 56C16.8428 55.6981 17.2345 55.5012 17.6574 55.4382C18.0803 55.3752 18.5123 55.4495 18.89 55.65C20.6904 56.6487 22.5996 57.4372 24.58 58C24.9836 58.1222 25.3383 58.3688 25.5933 58.7047C25.8483 59.0405 25.9907 59.4484 26 59.87V62C26 62.5304 26.2107 63.0391 26.5858 63.4142C26.9609 63.7893 27.4696 64 28 64H36C36.5304 64 37.0391 63.7893 37.4142 63.4142C37.7893 63.0391 38 62.5304 38 62V59.87C38.0093 59.4484 38.1517 59.0405 38.4067 58.7047C38.6617 58.3688 39.0164 58.1222 39.42 58C41.4009 57.4341 43.3101 56.6422 45.11 55.64C45.4877 55.4395 45.9197 55.3652 46.3426 55.4282C46.7655 55.4912 47.1572 55.6881 47.46 55.99L49 57.46C49.1857 57.646 49.4063 57.7935 49.6491 57.8941C49.8919 57.9948 50.1522 58.0466 50.415 58.0466C50.6778 58.0466 50.9381 57.9948 51.1809 57.8941C51.4237 57.7935 51.6443 57.646 51.83 57.46L57.49 51.8C57.676 51.6143 57.8235 51.3937 57.9241 51.1509C58.0248 50.9081 58.0766 50.6478 58.0766 50.385C58.0766 50.1222 58.0248 49.8619 57.9241 49.6191C57.8235 49.3763 57.676 49.1557 57.49 48.97L56 47.46C55.6981 47.1572 55.5012 46.7655 55.4382 46.3426C55.3752 45.9197 55.4495 45.4877 55.65 45.11C56.6487 43.3096 57.4372 41.4004 58 39.42C58.1222 39.0164 58.3688 38.6617 58.7047 38.4067C59.0405 38.1517 59.4484 38.0093 59.87 38H62C62.5304 38 63.0391 37.7893 63.4142 37.4142C63.7893 37.0391 64 36.5304 64 36Z" fill="#00BEBD"/>
<path d="M32 51C42.4934 51 51 42.4934 51 32C51 21.5066 42.4934 13 32 13C21.5066 13 13 21.5066 13 32C13 42.4934 21.5066 51 32 51Z" fill="#EA9706"/>
<path d="M32 46C39.732 46 46 39.732 46 32C46 24.268 39.732 18 32 18C24.268 18 18 24.268 18 32C18 39.732 24.268 46 32 46Z" fill="#FFAC00"/>
<path d="M32 52C28.6394 52.0014 25.3326 51.1561 22.385 49.542C19.4375 47.9278 16.9441 45.597 15.1353 42.7647C13.3265 39.9324 12.2606 36.69 12.036 33.3369C11.8113 29.9839 12.4352 26.6282 13.85 23.58C13.9052 23.4605 13.9833 23.353 14.08 23.2637C14.1767 23.1744 14.29 23.105 14.4135 23.0595C14.537 23.014 14.6683 22.9933 14.7998 22.9985C14.9313 23.0037 15.0605 23.0348 15.18 23.09C15.2995 23.1451 15.407 23.2233 15.4963 23.32C15.5856 23.4166 15.655 23.53 15.7005 23.6535C15.746 23.777 15.7667 23.9082 15.7615 24.0397C15.7562 24.1713 15.7252 24.3005 15.67 24.42C13.7715 28.589 13.534 33.3251 15.0059 37.6632C16.4778 42.0013 19.5484 45.6149 23.5919 47.7679C27.6354 49.9209 32.3477 50.4511 36.7686 49.2506C41.1895 48.0501 44.9863 45.2092 47.3855 41.3067C49.7847 37.4042 50.6056 32.7337 49.6811 28.247C48.7566 23.7603 46.1562 19.7949 42.4097 17.1587C38.6632 14.5225 34.0526 13.414 29.5172 14.059C24.9819 14.7039 20.8631 17.0539 18 20.63C17.8284 20.8208 17.5901 20.9383 17.3343 20.9583C17.0784 20.9783 16.8247 20.8992 16.6256 20.7373C16.4265 20.5755 16.2972 20.3432 16.2645 20.0887C16.2318 19.8342 16.2983 19.5769 16.45 19.37C18.5804 16.7543 21.3377 14.7199 24.4656 13.4562C27.5934 12.1926 30.9901 11.7406 34.3395 12.1424C37.689 12.5442 40.8824 13.7867 43.6226 15.7543C46.3629 17.7219 48.5609 20.3506 50.0121 23.396C51.4634 26.4413 52.1208 29.8043 51.9231 33.1719C51.7254 36.5396 50.6791 39.8026 48.8815 42.6572C47.084 45.5118 44.5935 47.8654 41.6419 49.4989C38.6903 51.1324 35.3735 51.9928 32 52Z" fill="#F3F3F3"/>
<path d="M21 21H17C16.7348 21 16.4804 20.8946 16.2929 20.7071C16.1054 20.5196 16 20.2652 16 20V16C16 15.7348 16.1054 15.4804 16.2929 15.2929C16.4804 15.1054 16.7348 15 17 15C17.2652 15 17.5196 15.1054 17.7071 15.2929C17.8946 15.4804 18 15.7348 18 16V19H21C21.2652 19 21.5196 19.1054 21.7071 19.2929C21.8946 19.4804 22 19.7348 22 20C22 20.2652 21.8946 20.5196 21.7071 20.7071C21.5196 20.8946 21.2652 21 21 21Z" fill="#F3F3F3"/>
<path d="M30.0001 38H24.0001C23.7349 38 23.4806 37.8946 23.293 37.7071C23.1055 37.5196 23.0001 37.2652 23.0001 37C22.9979 36.2129 23.2159 35.4409 23.6294 34.7711C24.0429 34.1014 24.6355 33.5607 25.3401 33.21L27.8401 32C28.2853 31.8033 28.6479 31.4575 28.8653 31.022C29.0828 30.5866 29.1415 30.089 29.0313 29.615C28.921 29.1409 28.6488 28.7202 28.2616 28.4254C27.8744 28.1306 27.3964 27.9801 26.9101 28C26.4044 28.0026 25.9201 28.2047 25.5625 28.5623C25.2048 28.92 25.0028 29.4042 25.0001 29.91C25.0001 30.1752 24.8948 30.4296 24.7072 30.6171C24.5197 30.8046 24.2654 30.91 24.0001 30.91C23.7498 30.911 23.5082 30.8181 23.323 30.6496C23.1379 30.4811 23.0227 30.2493 23.0001 30C22.9909 29.4797 23.085 28.9628 23.2771 28.4792C23.4692 27.9956 23.7554 27.5549 24.1191 27.1828C24.4829 26.8107 24.9169 26.5145 25.396 26.3115C25.8751 26.1084 26.3898 26.0026 26.9101 26C27.8322 25.999 28.7276 26.3096 29.451 26.8814C30.1743 27.4532 30.6833 28.2527 30.8952 29.1501C31.1071 30.0475 31.0095 30.9902 30.6183 31.8252C30.2271 32.6601 29.5653 33.3384 28.7401 33.75C25.9301 35.15 25.6401 35.19 25.2301 36H30.0001C30.2654 36 30.5197 36.1054 30.7072 36.2929C30.8948 36.4804 31.0001 36.7348 31.0001 37C31.0001 37.2652 30.8948 37.5196 30.7072 37.7071C30.5197 37.8946 30.2654 38 30.0001 38Z" fill="#F3F3F3"/>
<path d="M40.0002 35H34.0002C33.8351 34.9999 33.6727 34.9589 33.5273 34.8807C33.3819 34.8025 33.2582 34.6896 33.1671 34.5519C33.076 34.4143 33.0204 34.2563 33.0052 34.0919C32.99 33.9276 33.0158 33.762 33.0802 33.61L36.0802 26.61C36.1279 26.4842 36.2005 26.3692 36.2936 26.2721C36.3868 26.175 36.4986 26.0977 36.6223 26.0448C36.7461 25.9919 36.8793 25.9645 37.0138 25.9644C37.1484 25.9642 37.2817 25.9911 37.4056 26.0437C37.5295 26.0962 37.6415 26.1732 37.735 26.27C37.8284 26.3669 37.9013 26.4816 37.9494 26.6073C37.9974 26.733 38.0196 26.8672 38.0146 27.0017C38.0096 27.1361 37.9774 27.2682 37.9202 27.39L35.5202 33H40.0002C40.2654 33 40.5197 33.1054 40.7073 33.2929C40.8948 33.4804 41.0002 33.7348 41.0002 34C41.0002 34.2652 40.8948 34.5196 40.7073 34.7071C40.5197 34.8947 40.2654 35 40.0002 35Z" fill="#F3F3F3"/>
<path d="M40 38C39.7348 38 39.4804 37.8946 39.2929 37.7071C39.1054 37.5196 39 37.2652 39 37V30C39 29.7348 39.1054 29.4804 39.2929 29.2929C39.4804 29.1054 39.7348 29 40 29C40.2652 29 40.5196 29.1054 40.7071 29.2929C40.8946 29.4804 41 29.7348 41 30V37C41 37.2652 40.8946 37.5196 40.7071 37.7071C40.5196 37.8946 40.2652 38 40 38Z" fill="#F3F3F3"/>
</svg>
