<svg width="136" height="136" viewBox="0 0 136 136" fill="none" xmlns="http://www.w3.org/2000/svg">
<path d="M45.6102 52.6334V53.156C45.6102 61.3566 38.9645 67.9961 30.7712 67.9961C22.2899 67.9961 15.4097 74.8768 15.4097 83.3587C15.4097 91.8407 22.2899 98.7214 30.7712 98.7214H75.0336C83.5149 98.7214 90.3951 91.8407 90.3951 83.3587V82.8362C90.3951 74.6356 97.0408 67.9961 105.234 67.9961C113.715 67.9961 120.596 61.1154 120.596 52.6334C120.596 44.1515 113.715 37.2708 105.234 37.2708H60.9717C52.4837 37.2708 45.6102 44.1515 45.6102 52.6334Z" fill="#B2E6FF"/>
<path d="M56.6509 89.1474L120.596 37.2708L61.4744 71.2589L56.6509 89.1474Z" fill="white"/>
<path d="M56.6512 90.1525C56.4636 90.1525 56.2693 90.0989 56.1019 89.9917C55.7334 89.7572 55.5659 89.3083 55.6798 88.8862L60.5033 71.0044C60.5703 70.7498 60.7445 70.5288 60.9723 70.3948L120.094 36.4066C120.549 36.1453 121.125 36.2793 121.42 36.7081C121.715 37.1436 121.635 37.7265 121.226 38.0548L57.2809 89.9247C57.1001 90.0721 56.879 90.1525 56.6512 90.1525ZM62.3322 71.9223L58.4265 86.4073L110.212 44.3995L62.3322 71.9223Z" fill="#273557"/>
<path d="M28.9827 78.9498C28.6879 78.9498 28.3998 78.8226 28.1988 78.5747C27.8505 78.1459 27.9175 77.5095 28.3462 77.1611L32.9085 73.4564C33.3372 73.108 33.9737 73.175 34.322 73.6038C34.6704 74.0326 34.6034 74.669 34.1746 75.0174L29.6124 78.7221C29.4248 78.8762 29.2037 78.9498 28.9827 78.9498Z" fill="#273557"/>
<path d="M8.68384 95.4118C8.38907 95.4118 8.10099 95.2845 7.90001 95.0366C7.55165 94.6079 7.61864 93.9714 8.0474 93.623L23.0003 81.4896C23.429 81.1412 24.0655 81.2082 24.4138 81.637C24.7622 82.0658 24.6952 82.7023 24.2664 83.0507L9.31357 95.184C9.13269 95.3381 8.91161 95.4118 8.68384 95.4118Z" fill="#273557"/>
<path d="M26.008 100.826C25.7133 100.826 25.4252 100.698 25.2242 100.45C24.8759 100.022 24.9429 99.385 25.3716 99.0367L41.0681 86.307C41.4969 85.9586 42.1333 86.0256 42.4817 86.4544C42.83 86.8832 42.7631 87.5197 42.3343 87.8681L26.6378 100.598C26.4569 100.752 26.2291 100.826 26.008 100.826Z" fill="#273557"/>
<path d="M70.4451 105.133C70.1503 105.133 69.8622 105.005 69.6612 104.757C69.3129 104.329 69.3799 103.692 69.8086 103.344L81.9612 93.4825C82.3899 93.1342 83.0264 93.2012 83.3747 93.6299C83.7231 94.0587 83.6561 94.6951 83.2274 95.0435L71.0748 104.905C70.8939 105.059 70.6728 105.133 70.4451 105.133Z" fill="#273557"/>
<path d="M120.596 37.2708L104.584 80.0758L102.112 86.6953L23.6431 56.8878L36.6263 54.2615L120.596 37.2708Z" fill="#B2E6FF"/>
<path d="M120.596 37.2708L104.584 80.0758L36.6265 54.2615L120.596 37.2708Z" fill="white"/>
<path d="M102.113 87.7005C101.992 87.7005 101.872 87.6804 101.758 87.6335L23.2887 57.8261C22.8734 57.6653 22.6054 57.2499 22.6456 56.8077C22.6791 56.3588 23.0073 55.9903 23.4495 55.9032L120.402 36.2862C120.757 36.2125 121.126 36.3398 121.367 36.6212C121.601 36.8959 121.668 37.2845 121.541 37.6262L103.057 87.0507C102.964 87.2986 102.776 87.5062 102.528 87.6134C102.394 87.6737 102.254 87.7005 102.113 87.7005ZM27.248 57.1896L101.523 85.4025L119.022 38.6177L27.248 57.1896Z" fill="#273557"/>
<path d="M120.596 37.2776L61.4748 71.259L58.9626 80.5852L56.6513 89.1475L40.1509 63.1657L46.5822 61.0954L120.596 37.2776Z" fill="white"/>
<path d="M120.596 37.2776L61.4746 71.259L58.9624 80.5852L46.582 61.0954L120.596 37.2776Z" fill="#23D4CE"/>
<path d="M56.6512 90.1524C56.3095 90.1524 55.9879 89.9782 55.8004 89.6834L39.2999 63.6948C39.1325 63.4335 39.099 63.1052 39.2062 62.8171C39.3133 62.5223 39.5478 62.2945 39.8426 62.2007L120.288 36.3127C120.777 36.1519 121.306 36.3931 121.514 36.8621C121.722 37.331 121.541 37.8804 121.099 38.1417L62.3389 71.9222L57.6293 89.4087C57.5288 89.7906 57.2072 90.0787 56.812 90.139C56.7517 90.1524 56.7048 90.1524 56.6512 90.1524ZM41.6983 63.7216L56.276 86.6819L60.5033 70.9976C60.5703 70.743 60.7445 70.5219 60.9722 70.3879L111.84 41.1432L41.6983 63.7216Z" fill="#273557"/>
<path d="M6.33253 25.3516C6.07796 25.3516 5.81669 25.2511 5.62241 25.0568L0.296445 19.7309C-0.0988149 19.3356 -0.0988149 18.6992 0.296445 18.3106C0.691704 17.9153 1.32814 17.9153 1.7167 18.3106L7.04266 23.6366C7.43792 24.0318 7.43792 24.6683 7.04266 25.0568C6.84838 25.2511 6.58711 25.3516 6.33253 25.3516Z" fill="#273557"/>
<path d="M1.00658 25.3516C0.752002 25.3516 0.490725 25.2511 0.296445 25.0568C-0.0988149 24.6616 -0.0988149 24.0251 0.296445 23.6366L5.62241 18.3106C6.01766 17.9153 6.6541 17.9153 7.04266 18.3106C7.43792 18.7059 7.43792 19.3423 7.04266 19.7309L1.7167 25.0568C1.52242 25.2511 1.26785 25.3516 1.00658 25.3516Z" fill="#273557"/>
<path d="M134.994 77.7505C134.739 77.7505 134.478 77.65 134.284 77.4557L128.958 72.1298C128.562 71.7345 128.562 71.0981 128.958 70.7095C129.353 70.3143 129.989 70.3143 130.378 70.7095L135.704 76.0355C136.099 76.4308 136.099 77.0672 135.704 77.4557C135.509 77.65 135.255 77.7505 134.994 77.7505Z" fill="#273557"/>
<path d="M129.668 77.7505C129.413 77.7505 129.152 77.65 128.958 77.4557C128.562 77.0605 128.562 76.4241 128.958 76.0355L134.284 70.7095C134.679 70.3143 135.315 70.3143 135.704 70.7095C136.099 71.1048 136.099 71.7412 135.704 72.1298L130.378 77.4557C130.184 77.65 129.929 77.7505 129.668 77.7505Z" fill="#273557"/>
<path d="M113.053 135.999C112.798 135.999 112.537 135.899 112.343 135.704L107.017 130.378C106.621 129.983 106.621 129.347 107.017 128.958C107.412 128.563 108.048 128.563 108.437 128.958L113.763 134.284C114.158 134.679 114.158 135.316 113.763 135.704C113.569 135.905 113.307 135.999 113.053 135.999Z" fill="#273557"/>
<path d="M107.727 135.999C107.472 135.999 107.211 135.899 107.017 135.704C106.621 135.309 106.621 134.673 107.017 134.284L112.343 128.958C112.738 128.563 113.374 128.563 113.763 128.958C114.158 129.353 114.158 129.99 113.763 130.378L108.437 135.704C108.243 135.905 107.988 135.999 107.727 135.999Z" fill="#273557"/>
<path d="M13.2525 35.1201C11.5107 35.1201 10.0972 33.6998 10.0972 31.9647C10.0972 30.2296 11.5174 28.8093 13.2525 28.8093C14.9877 28.8093 16.4079 30.2296 16.4079 31.9647C16.4079 33.6998 14.9944 35.1201 13.2525 35.1201ZM13.2525 30.8124C12.6161 30.8124 12.107 31.3283 12.107 31.958C12.107 32.5877 12.6228 33.1036 13.2525 33.1036C13.8823 33.1036 14.3981 32.5877 14.3981 31.958C14.3981 31.3283 13.8823 30.8124 13.2525 30.8124Z" fill="#273557"/>
<path d="M95.6808 6.31076C93.9389 6.31076 92.5254 4.8905 92.5254 3.15538C92.5254 1.42025 93.9456 0 95.6808 0C97.4159 0 98.8361 1.42025 98.8361 3.15538C98.8361 4.8905 97.4226 6.31076 95.6808 6.31076ZM95.6808 2.0031C95.0443 2.0031 94.5352 2.51894 94.5352 3.14868C94.5352 3.77841 95.051 4.29426 95.6808 4.29426C96.3105 4.29426 96.8264 3.77841 96.8264 3.14868C96.8264 2.51894 96.3172 2.0031 95.6808 2.0031Z" fill="#273557"/>
<path d="M43.8556 122.68C42.1137 122.68 40.7002 121.259 40.7002 119.524C40.7002 117.789 42.1204 116.369 43.8556 116.369C45.5907 116.369 47.011 117.789 47.011 119.524C47.011 121.259 45.5974 122.68 43.8556 122.68ZM43.8556 118.372C43.2191 118.372 42.71 118.888 42.71 119.518C42.71 120.147 43.2258 120.663 43.8556 120.663C44.4853 120.663 45.0012 120.147 45.0012 119.518C45.0012 118.888 44.492 118.372 43.8556 118.372Z" fill="#273557"/>
</svg>
