<svg width="136" height="136" viewBox="0 0 136 136" fill="none" xmlns="http://www.w3.org/2000/svg">
<path d="M45.6028 52.6306V53.1531C45.6028 61.3532 38.957 67.9924 30.7636 67.9924C22.2822 67.9924 15.4019 74.8727 15.4019 83.3541C15.4019 91.8356 22.2822 98.7159 30.7636 98.7159H75.0267C83.5082 98.7159 90.3885 91.8356 90.3885 83.3541V82.8316C90.3885 74.6315 97.0343 67.9924 105.228 67.9924C113.709 67.9924 120.59 61.1121 120.59 52.6306C120.59 44.1491 113.709 37.2688 105.228 37.2688H60.9646C52.4831 37.2688 45.6028 44.1491 45.6028 52.6306Z" fill="#B2E6FF"/>
<path d="M29.6988 21.974C29.4443 21.974 29.183 21.8735 28.9887 21.6792L23.6627 16.3532C23.2674 15.9579 23.2674 15.3215 23.6627 14.9329C24.0579 14.5377 24.6944 14.5377 25.0829 14.9329L30.409 20.259C30.8043 20.6542 30.8043 21.2907 30.409 21.6792C30.2147 21.8735 29.9534 21.974 29.6988 21.974Z" fill="#002B8F"/>
<path d="M24.3728 21.974C24.1182 21.974 23.8569 21.8735 23.6627 21.6792C23.2674 21.284 23.2674 20.6475 23.6627 20.259L28.9887 14.9329C29.384 14.5377 30.0204 14.5377 30.409 14.9329C30.8043 15.3282 30.8043 15.9646 30.409 16.3532L25.0829 21.6792C24.8887 21.8735 24.6341 21.974 24.3728 21.974Z" fill="#002B8F"/>
<path d="M134.986 88.8349C134.732 88.8349 134.471 88.7344 134.276 88.5401L128.95 83.214C128.555 82.8188 128.555 82.1823 128.95 81.7938C129.346 81.3985 129.982 81.3985 130.371 81.7938L135.697 87.1198C136.092 87.5151 136.092 88.1515 135.697 88.5401C135.502 88.7344 135.248 88.8349 134.986 88.8349Z" fill="#002B8F"/>
<path d="M129.667 88.8349C129.413 88.8349 129.151 88.7344 128.957 88.5401C128.562 88.1448 128.562 87.5084 128.957 87.1198L134.283 81.7938C134.678 81.3985 135.315 81.3985 135.703 81.7938C136.099 82.189 136.099 82.8255 135.703 83.214L130.377 88.5401C130.176 88.7344 129.922 88.8349 129.667 88.8349Z" fill="#002B8F"/>
<path d="M56.2682 135.991C56.0136 135.991 55.7523 135.891 55.558 135.697L50.232 130.371C49.8367 129.975 49.8367 129.339 50.232 128.95C50.6273 128.555 51.2637 128.555 51.6523 128.95L56.9783 134.276C57.3736 134.672 57.3736 135.308 56.9783 135.697C56.784 135.898 56.5295 135.991 56.2682 135.991Z" fill="#002B8F"/>
<path d="M50.9421 135.991C50.6876 135.991 50.4263 135.891 50.232 135.697C49.8367 135.301 49.8367 134.665 50.232 134.276L55.558 128.95C55.9533 128.555 56.5898 128.555 56.9783 128.95C57.3736 129.346 57.3736 129.982 56.9783 130.371L51.6523 135.697C51.458 135.898 51.2034 135.991 50.9421 135.991Z" fill="#002B8F"/>
<path d="M92.8136 6.31086C91.0718 6.31086 89.6582 4.89058 89.6582 3.15543C89.6582 1.42028 91.0785 0 92.8136 0C94.5488 0 95.9691 1.42028 95.9691 3.15543C95.9691 4.89058 94.5555 6.31086 92.8136 6.31086ZM92.8136 2.00313C92.1772 2.00313 91.668 2.51898 91.668 3.14873C91.668 3.77848 92.1839 4.29433 92.8136 4.29433C93.4434 4.29433 93.9593 3.77848 93.9593 3.14873C93.9593 2.51898 93.4434 2.00313 92.8136 2.00313Z" fill="#002B8F"/>
<path d="M74.9865 112.818C73.2446 112.818 71.8311 111.398 71.8311 109.663C71.8311 107.928 73.2513 106.508 74.9865 106.508C76.7216 106.508 78.1419 107.928 78.1419 109.663C78.1419 111.398 76.7283 112.818 74.9865 112.818ZM74.9865 108.511C74.35 108.511 73.8409 109.027 73.8409 109.656C73.8409 110.286 74.3567 110.802 74.9865 110.802C75.6162 110.802 76.1321 110.286 76.1321 109.656C76.1321 109.027 75.6229 108.511 74.9865 108.511Z" fill="#002B8F"/>
<path d="M3.15544 82.3026C1.41359 82.3026 0 80.8823 0 79.1471C0 77.412 1.42029 75.9917 3.15544 75.9917C4.8906 75.9917 6.31089 77.412 6.31089 79.1471C6.31089 80.8823 4.89729 82.3026 3.15544 82.3026ZM3.15544 77.9948C2.519 77.9948 2.00983 78.5107 2.00983 79.1404C2.00983 79.7702 2.5257 80.286 3.15544 80.286C3.78519 80.286 4.30106 79.7702 4.30106 79.1404C4.30106 78.5107 3.78519 77.9948 3.15544 77.9948Z" fill="#002B8F"/>
<path d="M28.8676 116.215C28.7805 116.215 28.6867 116.201 28.5996 116.175C28.0637 116.027 27.7488 115.471 27.9029 114.935C28.8006 111.713 30.4956 108.725 32.8002 106.3C34.1602 104.873 35.2723 103.252 36.1164 101.469C36.9605 99.6941 37.5099 97.7982 37.7578 95.8486C38.0325 93.678 38.6488 91.5878 39.58 89.6182C40.5112 87.6552 41.7506 85.8531 43.2513 84.2653C44.6113 82.8384 45.7234 81.2104 46.5742 79.4351C47.4116 77.6597 47.9677 75.7705 48.2156 73.8209C48.3362 72.883 48.517 71.9652 48.7515 71.0876C49.0731 69.875 49.5086 68.6959 50.0445 67.5838C50.1718 67.3158 50.3058 67.0545 50.4465 66.7932C51.3241 65.1318 52.4228 63.5976 53.7158 62.2443L53.8163 62.1438L58.1307 57.6016C58.5126 57.1997 59.149 57.1796 59.551 57.5681C59.953 57.95 59.9664 58.5864 59.5845 58.9884L55.1495 63.6579C54.0039 64.8638 53.0124 66.2439 52.2151 67.7513C52.0878 67.9924 51.9673 68.2269 51.8534 68.4614C51.371 69.4663 50.9824 70.5315 50.6877 71.6235C50.4733 72.4141 50.3125 73.2448 50.2053 74.0889C49.9306 76.2461 49.321 78.343 48.3898 80.3127C47.4519 82.289 46.2125 84.0844 44.7118 85.6655C43.3585 87.0925 42.2464 88.7205 41.4023 90.4958C40.5582 92.2712 40.0021 94.1604 39.7542 96.1166C39.4795 98.2738 38.8699 100.371 37.9386 102.34C37.0007 104.31 35.768 106.112 34.2607 107.693C32.1771 109.884 30.6564 112.577 29.8458 115.485C29.7118 115.92 29.3098 116.215 28.8676 116.215Z" fill="#002B8F"/>
<path d="M67.4566 59.4438C67.2422 59.4438 67.0345 59.3768 66.8536 59.2428C66.4114 58.9078 66.3244 58.2781 66.6594 57.8359L68.0729 55.9601C68.4079 55.5179 69.0376 55.4308 69.4798 55.7658C69.922 56.1008 70.0091 56.7305 69.6741 57.1727L68.2605 59.0418C68.0596 59.3098 67.7647 59.4438 67.4566 59.4438Z" fill="#002B8F"/>
<path d="M48.4973 109.87C48.3097 109.87 48.1155 109.817 47.948 109.703C47.4857 109.395 47.3584 108.771 47.6599 108.309C47.9011 107.941 48.1624 107.579 48.4303 107.224C49.0601 106.386 49.6228 105.495 50.1052 104.571C50.3598 104.075 50.9694 103.888 51.4585 104.142C51.9542 104.397 52.1418 105.006 51.8872 105.495C51.358 106.52 50.7349 107.512 50.0382 108.437C49.797 108.758 49.5625 109.086 49.3415 109.421C49.1405 109.709 48.8189 109.87 48.4973 109.87ZM52.5974 101.764C52.517 101.764 52.4366 101.757 52.3562 101.737C51.8202 101.603 51.492 101.06 51.6193 100.518C51.9609 99.131 52.1485 97.704 52.1619 96.2838C52.1619 96.2838 52.1619 96.2369 52.1619 96.1967C52.1753 95.6406 52.6376 95.2052 53.1936 95.2186C53.7497 95.232 54.1852 95.6942 54.1718 96.2503L53.1668 96.2235L54.1718 96.2771C54.1517 97.8849 53.9507 99.4593 53.5688 101C53.4616 101.456 53.0462 101.764 52.5974 101.764ZM53.7765 92.7063C53.6961 92.7063 53.609 92.6929 53.5286 92.6728C52.9926 92.5388 52.6644 91.9894 52.7983 91.4535C52.9323 90.9309 53.0864 90.4084 53.2606 89.8925C53.6023 88.8943 54.031 87.9095 54.5201 86.9716C54.7814 86.4825 55.391 86.2949 55.8801 86.5495C56.3692 86.8108 56.5567 87.4137 56.3022 87.9095C55.8533 88.7536 55.4714 89.6446 55.1633 90.5424C55.0092 91.0046 54.8685 91.4803 54.7479 91.9492C54.634 92.3981 54.2253 92.7063 53.7765 92.7063ZM57.9167 84.6134C57.7291 84.6134 57.5415 84.5598 57.3741 84.4526C56.9051 84.1511 56.7778 83.5281 57.0726 83.0658C57.8564 81.8465 58.5063 80.5401 58.9886 79.1801C59.1762 78.6576 59.7524 78.3829 60.2749 78.5705C60.7975 78.7581 61.0721 79.3342 60.8846 79.8568C60.3486 81.3641 59.6318 82.8112 58.7608 84.1578C58.5733 84.4526 58.245 84.6134 57.9167 84.6134ZM60.9516 76.0649C60.9181 76.0649 60.8779 76.0649 60.8444 76.0582C60.295 75.9979 59.8931 75.5021 59.9534 74.9528C60.0137 74.3699 60.0471 73.7871 60.0538 73.2109C60.0538 73.1305 60.0538 73.0502 60.0605 72.9631C60.0806 72.0854 60.1543 71.2078 60.2883 70.3436C60.3754 69.7942 60.8846 69.4191 61.4339 69.5062C61.9833 69.5933 62.3584 70.1024 62.2713 70.6518C62.1508 71.4423 62.0771 72.2462 62.0637 73.0435C62.0637 73.0703 62.0637 73.1038 62.057 73.1306C62.057 73.164 62.057 73.1908 62.057 73.2243C62.0503 73.8742 62.0101 74.524 61.9431 75.1672C61.8962 75.683 61.4607 76.0649 60.9516 76.0649ZM62.4991 67.1011C62.3718 67.1011 62.2446 67.0743 62.124 67.0274C61.6081 66.8197 61.3602 66.2301 61.5679 65.721C61.9698 64.7295 62.4522 63.7648 63.0083 62.8536C63.2896 62.3914 63.5844 61.9358 63.8859 61.5138C64.2075 61.0649 64.8305 60.9577 65.2861 61.2793C65.7349 61.6008 65.8421 62.2306 65.5205 62.6794C65.2459 63.0613 64.9779 63.47 64.7234 63.892C64.2276 64.7094 63.7921 65.5803 63.4303 66.4713C63.2695 66.8666 62.8944 67.1011 62.4991 67.1011Z" fill="#002B8F"/>
<path d="M45.7843 116.215C45.7106 116.215 45.6369 116.208 45.5565 116.188C45.0138 116.061 44.6789 115.525 44.7995 114.982C44.9803 114.185 45.2148 113.388 45.4962 112.617C45.6838 112.095 46.2599 111.827 46.7825 112.014C47.3051 112.202 47.573 112.778 47.3855 113.301C47.1309 113.997 46.9232 114.714 46.7557 115.431C46.6552 115.9 46.2398 116.215 45.7843 116.215Z" fill="#002B8F"/>
<path d="M107.131 116.215C106.688 116.215 106.287 115.927 106.166 115.478C105.349 112.564 103.821 109.87 101.744 107.686C100.23 106.092 98.9976 104.29 98.0664 102.334C97.1352 100.364 96.5255 98.267 96.2508 96.1098C96.0029 94.1602 95.4536 92.271 94.6095 90.489C93.772 88.727 92.6533 87.099 91.2933 85.6587C89.7859 84.0642 88.5464 82.2621 87.6152 80.3058C86.684 78.3362 86.0744 76.2393 85.7997 74.0821C85.6925 73.2379 85.525 72.4072 85.3174 71.6167C85.0226 70.5247 84.634 69.4662 84.1584 68.4612C84.0445 68.2268 83.9306 68.0057 83.8167 67.7779C82.9994 66.237 82.0078 64.8503 80.8488 63.6377L80.7751 63.564L76.4205 58.9883C76.0386 58.5863 76.0521 57.9499 76.454 57.568C76.856 57.1861 77.4924 57.1995 77.8743 57.6015L82.2758 62.2308C83.5755 63.5975 84.6809 65.1316 85.5652 66.8065C85.7193 67.108 85.8399 67.3491 85.9605 67.597C86.4897 68.7091 86.9252 69.8882 87.2468 71.0941C87.4813 71.9717 87.6621 72.8896 87.7827 73.8275C88.0306 75.777 88.58 77.6663 89.4241 79.4483C90.2615 81.2102 91.3803 82.8382 92.7403 84.2786C94.2477 85.8731 95.487 87.6752 96.4183 89.6314C97.3495 91.6011 97.9592 93.698 98.2339 95.8552C98.4817 97.8047 99.0311 99.694 99.8752 101.476C100.713 103.238 101.831 104.866 103.191 106.306C105.496 108.725 107.191 111.713 108.095 114.942C108.243 115.478 107.935 116.034 107.399 116.181C107.312 116.201 107.218 116.215 107.131 116.215Z" fill="#002B8F"/>
<path d="M68.535 59.444C68.2336 59.444 67.9321 59.3033 67.7311 59.0421L66.3176 57.1729C65.9826 56.7308 66.0763 56.101 66.5185 55.766C66.9607 55.4311 67.5905 55.5249 67.9255 55.967L69.339 57.8362C69.674 58.2783 69.5869 58.9081 69.1447 59.2431C68.9571 59.377 68.7427 59.444 68.535 59.444Z" fill="#002B8F"/>
<path d="M87.4946 109.871C87.1663 109.871 86.8515 109.71 86.6572 109.422C86.4361 109.087 86.2083 108.759 85.9604 108.437C85.2637 107.519 84.6406 106.528 84.1114 105.496C83.8568 105 84.0511 104.397 84.5401 104.143C85.0292 103.888 85.6388 104.082 85.8934 104.571C86.3758 105.503 86.9385 106.394 87.5616 107.224C87.8296 107.579 88.0841 107.941 88.332 108.31C88.6402 108.772 88.5129 109.395 88.0439 109.703C87.8764 109.817 87.6822 109.871 87.4946 109.871ZM83.3946 101.764C82.9457 101.764 82.5304 101.456 82.4165 101.001C82.0413 99.4732 81.8403 97.8921 81.8202 96.311C81.8135 95.7617 82.2489 95.2659 82.805 95.2592C83.3812 95.2726 83.8166 95.6478 83.83 96.2039V96.3043C83.8501 97.7179 84.031 99.1449 84.3726 100.525C84.5066 101.061 84.1784 101.61 83.6357 101.744C83.5553 101.751 83.4749 101.764 83.3946 101.764ZM82.2154 92.7068C81.7666 92.7068 81.358 92.4053 81.2441 91.9497C81.1235 91.4741 80.9828 90.9984 80.822 90.5361C80.5138 89.6317 80.1319 88.7474 79.683 87.9033C79.4285 87.4142 79.6161 86.8046 80.1051 86.5433C80.5942 86.282 81.2038 86.4763 81.4651 86.9653C81.9542 87.8966 82.3762 88.8814 82.7246 89.8796C82.8988 90.3955 83.0528 90.918 83.1868 91.4406C83.3275 91.9765 82.9993 92.5259 82.4633 92.6666C82.3829 92.6934 82.2958 92.7068 82.2154 92.7068ZM78.0752 84.6139C77.7469 84.6139 77.4253 84.4531 77.231 84.1516C76.3534 82.7916 75.6366 81.3445 75.1074 79.8439C74.9198 79.3213 75.1944 78.7452 75.7237 78.5643C76.2462 78.3834 76.8224 78.6514 77.0033 79.1806C77.4789 80.5339 78.1221 81.8403 78.9193 83.0663C79.2208 83.5352 79.0868 84.1516 78.6246 84.4531C78.4504 84.5603 78.2628 84.6139 78.0752 84.6139ZM75.0404 76.0654C74.5312 76.0654 74.0958 75.6835 74.0422 75.1677C73.9752 74.5245 73.935 73.8747 73.9283 73.2382C73.9283 73.1913 73.9283 73.1578 73.9283 73.1243C73.9283 73.0975 73.9216 73.0707 73.9216 73.0506C73.9082 72.2534 73.8344 71.4495 73.7138 70.6589C73.6267 70.1096 74.0086 69.6004 74.5513 69.5133C75.0939 69.4263 75.6098 69.8014 75.6969 70.3508C75.8309 71.215 75.9113 72.0993 75.9247 72.977C75.9314 73.064 75.9314 73.1444 75.9314 73.2315C75.9381 73.7943 75.9716 74.3838 76.0386 74.96C76.0989 75.5093 75.6969 76.0051 75.1475 76.0654C75.114 76.0654 75.0739 76.0654 75.0404 76.0654ZM73.4928 67.1016C73.0975 67.1016 72.7223 66.8671 72.5616 66.4785C72.1998 65.5942 71.7644 64.7233 71.2686 63.8925C71.014 63.4705 70.746 63.0618 70.4713 62.6799C70.1498 62.2311 70.2502 61.6013 70.7058 61.2798C71.1547 60.9582 71.7845 61.0654 72.106 61.5142C72.4075 61.9363 72.7022 62.3852 72.9836 62.8541C73.5397 63.7719 74.022 64.7367 74.4173 65.7148C74.625 66.2306 74.3771 66.8135 73.868 67.0279C73.7474 67.0815 73.6134 67.1016 73.4928 67.1016Z" fill="#002B8F"/>
<path d="M90.2077 116.215C89.7521 116.215 89.3368 115.9 89.2296 115.437C89.0621 114.714 88.8544 113.997 88.5999 113.307C88.4123 112.784 88.6802 112.208 89.2027 112.021C89.7253 111.833 90.3015 112.101 90.4891 112.624C90.7704 113.394 90.9982 114.191 91.1858 114.989C91.3131 115.531 90.9714 116.067 90.4288 116.194C90.3551 116.208 90.2814 116.215 90.2077 116.215Z" fill="#002B8F"/>
<path d="M117.005 52.1079V56.8444C117.005 60.0199 113.796 62.9677 108.316 65.3862C99.4731 69.312 84.7009 71.8712 67.9925 71.8712C51.2707 71.8712 36.5052 69.3053 27.662 65.3862C22.2019 62.9744 18.9929 60.04 18.9795 56.8645V52.1079C18.9795 52.9118 19.1805 53.7024 19.5825 54.4795C23.2805 61.6479 43.5396 67.1347 67.9925 67.1347C92.4387 67.1347 112.704 61.6479 116.403 54.4795C116.805 53.7024 117.005 52.9118 117.005 52.1079Z" fill="white"/>
<path d="M67.9925 72.8762C51.7598 72.8762 36.532 70.4175 27.2533 66.304C21.197 63.6243 17.988 60.3616 17.9746 56.8645V52.1079C17.9746 51.5519 18.4235 51.103 18.9795 51.103C19.5356 51.103 19.9844 51.5519 19.9844 52.1079C19.9844 52.7511 20.1452 53.3741 20.4735 54.0173C24.0376 60.9177 44.4642 66.1298 67.9925 66.1298C91.5209 66.1298 111.947 60.9244 115.512 54.0173C115.84 53.3741 116.001 52.7511 116.001 52.1079C116.001 51.5519 116.449 51.103 117.005 51.103C117.562 51.103 118.01 51.5519 118.01 52.1079V56.8444C118.01 60.3549 114.801 63.6243 108.725 66.304C99.4463 70.4175 84.2185 72.8762 67.9925 72.8762ZM19.9911 56.7707V56.8645C19.9978 59.4639 22.8652 62.1638 28.0706 64.4684C37.1082 68.4746 52.0345 70.8663 67.9992 70.8663C83.9573 70.8663 98.8769 68.4746 107.914 64.4684C113.133 62.1705 116.007 59.4639 116.007 56.8444V56.764C109.938 63.4568 90.6098 68.133 67.9992 68.133C45.3887 68.1397 26.0541 63.4568 19.9911 56.7707Z" fill="#002B8F"/>
<path d="M117.012 52.1012C117.012 52.9118 116.805 53.6956 116.409 54.4728C112.705 61.6412 92.4456 67.128 67.9993 67.128C43.5397 67.128 23.2874 61.6412 19.5893 54.4728C19.1873 53.6956 18.9863 52.9118 18.9863 52.1012C19.1002 51.9337 20.3463 50.2521 22.9926 47.9743C29.1761 42.6483 42.9971 34.0864 67.9993 34.0864C93.0016 34.0864 106.829 42.6483 112.999 47.9743C115.78 50.366 117.012 52.1012 117.012 52.1012Z" fill="white"/>
<path d="M112.999 47.9743C112.932 48.1552 112.859 48.3428 112.772 48.5237C109.348 55.6921 90.6033 61.1789 67.9995 61.1789C45.3822 61.1789 26.6439 55.6921 23.2205 48.5237C23.1334 48.3428 23.0597 48.1552 22.9927 47.9743C29.1762 42.6483 42.9972 34.0864 67.9995 34.0864C93.0017 34.0864 106.829 42.6483 112.999 47.9743Z" fill="#00A4FF"/>
<path d="M67.9927 68.1398C43.3723 68.1398 22.6375 62.586 18.6916 54.9352C18.2159 54.0107 17.9814 53.0594 17.9814 52.108C17.9814 51.9004 18.0484 51.6927 18.169 51.5252C18.705 50.7749 31.789 33.0884 67.9994 33.0884C104.364 33.0884 117.3 50.7749 117.83 51.5252C117.95 51.6927 118.017 51.9004 118.017 52.108C118.017 53.0594 117.776 54.0107 117.307 54.9352C113.348 62.586 92.6131 68.1398 67.9927 68.1398ZM20.0047 52.4229C20.0516 52.9522 20.2056 53.4747 20.4803 54.0174C24.0444 60.9178 44.471 66.13 67.9994 66.13C91.5278 66.13 111.954 60.9245 115.518 54.0174C115.793 53.4814 115.947 52.9656 115.994 52.4363C114.246 50.259 100.88 35.0982 67.9994 35.0982C34.7769 35.0982 21.7867 50.1384 20.0047 52.4229Z" fill="#002B8F"/>
<path d="M108.316 65.3862C100.813 70.8731 87.9699 76.9896 67.9922 76.9896C48.0078 76.9896 35.165 70.8731 27.6616 65.3862C36.5049 69.3121 51.2771 71.8713 67.9922 71.8713C84.7072 71.8713 99.4727 69.3054 108.316 65.3862Z" fill="white"/>
<path d="M67.9921 77.9946C47.4985 77.9946 34.4279 71.5765 27.0653 66.1969C26.6499 65.8954 26.5293 65.326 26.7906 64.8838C27.0452 64.4416 27.5945 64.2607 28.0702 64.4684C37.1077 68.4747 52.0341 70.8664 67.9921 70.8664C83.9501 70.8664 98.8697 68.4747 107.907 64.4684C108.376 64.2607 108.926 64.4416 109.187 64.8838C109.441 65.326 109.328 65.8954 108.912 66.1969C101.549 71.5765 88.4789 77.9946 67.9921 77.9946ZM36.143 69.3054C43.5727 72.9298 53.9903 75.9847 67.9921 75.9847C81.9939 75.9847 92.4048 72.9298 99.8345 69.3054C91.0046 71.5832 79.763 72.8762 67.9921 72.8762C56.2212 72.8762 44.9728 71.5832 36.143 69.3054Z" fill="#002B8F"/>
<path d="M92.8141 48.7984V48.8051C88.493 52.9386 79.0067 55.7993 67.9995 55.7993C56.9789 55.7993 47.4925 52.9386 43.1714 48.8051V48.7984C43.8748 43.4254 46.2866 38.5951 49.8507 34.8569C54.4063 30.0534 60.8512 27.0654 67.9928 27.0654C75.1344 27.0654 81.5792 30.0534 86.1281 34.8569C89.6922 38.5884 92.1107 43.4187 92.8141 48.7984Z" fill="white"/>
<path d="M92.8141 48.7984C88.493 52.9386 79.0067 55.7993 67.9995 55.7993C56.9789 55.7993 47.4925 52.9386 43.1714 48.7984C47.4925 44.6649 56.9789 41.8042 67.9995 41.8042C79.0067 41.8042 88.493 44.6649 92.8141 48.7984Z" fill="#B2E6FF"/>
<path d="M67.9928 56.8042C56.9388 56.8042 47.1576 54.0172 42.4747 49.5286C42.2737 49.341 42.1665 49.0798 42.1665 48.8051C42.1665 48.7649 42.1665 48.7113 42.1732 48.6644C42.89 43.191 45.2951 38.1798 49.1205 34.1601C54.0714 28.9346 60.7775 26.0605 67.9928 26.0605C75.2014 26.0605 81.9008 28.9413 86.8583 34.1669C90.6904 38.1865 93.0889 43.2044 93.8057 48.6711C93.8124 48.7113 93.8124 48.7582 93.8124 48.7984V48.8051C93.8124 49.0798 93.6985 49.341 93.5042 49.5286C88.8213 54.0172 79.0469 56.8042 67.9928 56.8042ZM44.2366 48.4232C48.6583 52.3089 57.8901 54.7944 67.9928 54.7944C78.0889 54.7944 87.3139 52.3022 91.7423 48.4232C91.0053 43.5728 88.8213 39.1311 85.4046 35.5469C80.8289 30.7233 74.6521 28.0704 67.9995 28.0704C61.3403 28.0704 55.1567 30.7233 50.581 35.5469C47.1643 39.1311 44.9803 43.5728 44.2366 48.4232Z" fill="#002B8F"/>
<path d="M92.8141 49.8169C92.4993 49.8169 92.2247 49.6762 92.0371 49.4551C87.736 45.4221 78.3233 42.816 67.9995 42.816C57.6422 42.816 48.196 45.4355 43.9084 49.4886C43.7275 49.6896 43.4595 49.8169 43.1714 49.8169C42.6154 49.8169 42.1665 49.3747 42.1665 48.8187V48.8053C42.1665 48.5306 42.2804 48.2693 42.4747 48.0817C47.1643 43.5931 56.9455 40.8062 67.9995 40.8062C79.0469 40.8062 88.8213 43.5931 93.5109 48.0817C93.7119 48.2693 93.8191 48.5306 93.8191 48.8053C93.8191 49.3546 93.3702 49.8169 92.8141 49.8169Z" fill="#002B8F"/>
<path d="M24.3926 50.8417C24.1715 50.8417 23.9505 50.768 23.7629 50.6206C23.0795 50.0713 22.4632 49.5085 21.9339 48.9458C21.5521 48.5438 21.5722 47.9074 21.9741 47.5255C22.3761 47.1436 23.0125 47.1637 23.3944 47.5657C23.8634 48.0614 24.406 48.5572 25.0224 49.053C25.4578 49.4013 25.5248 50.0311 25.1764 50.4665C24.9755 50.7144 24.6874 50.8417 24.3926 50.8417Z" fill="#002B8F"/>
<path d="M67.9928 62.1905C67.1754 62.1905 66.3648 62.1838 65.5542 62.1637C64.9981 62.1503 64.5627 61.6881 64.5694 61.1387C64.5828 60.5827 65.0316 60.1338 65.5943 60.1539C67.1754 60.1874 68.7833 60.1874 70.3643 60.1539C70.9204 60.1338 71.3759 60.5827 71.3893 61.132C71.4027 61.6881 70.9606 62.1503 70.4046 62.157C69.614 62.1838 68.8101 62.1905 67.9928 62.1905ZM75.2014 61.9427C74.6788 61.9427 74.2367 61.534 74.2032 61.0047C74.163 60.4487 74.585 59.973 75.1343 59.9328C76.7221 59.8256 78.3166 59.6782 79.8775 59.4974C80.4269 59.4304 80.9294 59.8256 80.9897 60.3817C81.05 60.931 80.6547 61.4335 80.1053 61.4938C78.5108 61.6814 76.8829 61.8288 75.2616 61.9427C75.2482 61.9427 75.2282 61.9427 75.2014 61.9427ZM60.7708 61.9427C60.744 61.9427 60.7239 61.9427 60.7038 61.9427C59.0892 61.8288 57.4612 61.6814 55.8601 61.4938C55.3107 61.4268 54.9155 60.931 54.9758 60.3817C55.0428 59.8323 55.5385 59.4371 56.0879 59.4974C57.6556 59.6782 59.25 59.8256 60.8311 59.9328C61.3871 59.973 61.8025 60.4487 61.7623 61.0047C61.7355 61.534 61.2933 61.9427 60.7708 61.9427ZM84.7681 60.8305C84.2857 60.8305 83.857 60.4822 83.7766 59.9864C83.6895 59.4371 84.0579 58.9212 84.6073 58.8341C86.1817 58.5728 87.7561 58.2781 89.2836 57.9431C89.8329 57.8225 90.3621 58.1709 90.476 58.7135C90.5966 59.2562 90.2482 59.7921 89.7056 59.906C88.1446 60.2477 86.5368 60.5492 84.9289 60.8171C84.8753 60.8305 84.8217 60.8305 84.7681 60.8305ZM51.2107 60.8305C51.1571 60.8305 51.1035 60.8238 51.0432 60.8171C49.4286 60.5492 47.8208 60.2477 46.2665 59.906C45.7239 59.7854 45.3822 59.2562 45.4961 58.7135C45.6167 58.1709 46.1526 57.8292 46.6886 57.9431C48.216 58.2781 49.7904 58.5728 51.3715 58.8341C51.9208 58.9212 52.2893 59.4438 52.2022 59.9864C52.1218 60.4822 51.693 60.8305 51.2107 60.8305ZM94.1674 58.7872C93.7252 58.7872 93.3233 58.4924 93.196 58.0503C93.0486 57.5143 93.3634 56.965 93.8994 56.8176C95.4604 56.3888 96.9879 55.9132 98.4416 55.4174C98.9709 55.2365 99.5404 55.5179 99.7212 56.0405C99.9021 56.563 99.6207 57.1392 99.0982 57.32C97.6109 57.8359 96.0433 58.3183 94.4354 58.7604C94.3483 58.7738 94.2612 58.7872 94.1674 58.7872ZM41.8047 58.7805C41.7176 58.7805 41.6238 58.7671 41.5367 58.747C39.9355 58.3049 38.3679 57.8225 36.8739 57.3066C36.3514 57.1258 36.07 56.5563 36.2509 56.0271C36.4318 55.5045 37.0079 55.2231 37.5305 55.404C38.9842 55.9065 40.5117 56.3754 42.0727 56.8042C42.6087 56.9516 42.9235 57.5076 42.7761 58.0369C42.6555 58.4924 42.2469 58.7805 41.8047 58.7805ZM103.265 55.6318C102.877 55.6318 102.508 55.404 102.341 55.0221C102.12 54.513 102.354 53.9234 102.863 53.7024C104.391 53.0458 105.811 52.3424 107.091 51.6255C107.573 51.3576 108.189 51.525 108.457 52.0074C108.732 52.4898 108.558 53.1061 108.069 53.3741C106.729 54.1244 105.242 54.8547 103.654 55.5447C103.533 55.605 103.399 55.6318 103.265 55.6318ZM32.7136 55.6251C32.5796 55.6251 32.4456 55.5983 32.3183 55.5447C30.7306 54.8547 29.2433 54.1244 27.9034 53.3741C27.421 53.0994 27.2469 52.4898 27.5215 52.0074C27.7895 51.525 28.4058 51.3509 28.8882 51.6255C30.1678 52.3424 31.5881 53.0391 33.1155 53.7024C33.6247 53.9234 33.8592 54.513 33.6381 55.0221C33.4773 55.3973 33.1021 55.6251 32.7136 55.6251Z" fill="#002B8F"/>
<path d="M111.599 50.8417C111.304 50.8417 111.016 50.7144 110.815 50.4665C110.467 50.0311 110.534 49.4013 110.969 49.053C111.585 48.5572 112.128 48.0547 112.597 47.5657C112.979 47.1637 113.615 47.1436 114.017 47.5255C114.419 47.9074 114.439 48.5438 114.058 48.9458C113.528 49.5018 112.919 50.0646 112.229 50.6206C112.041 50.768 111.82 50.8417 111.599 50.8417Z" fill="#002B8F"/>
<path d="M55.1434 39.0107C54.8754 39.0107 54.6074 38.9035 54.4065 38.6891C54.0313 38.2805 54.0514 37.644 54.4601 37.2689C56.8451 35.0581 59.766 33.4502 62.8947 32.6195C63.4373 32.4788 63.9799 32.8004 64.1206 33.3363C64.2613 33.8723 63.9398 34.4216 63.4038 34.5623C60.5901 35.3059 57.9705 36.753 55.82 38.7427C55.6324 38.9236 55.3846 39.0107 55.1434 39.0107Z" fill="#002B8F"/>
</svg>
