<svg width="64" height="60" viewBox="0 0 64 60" fill="none" xmlns="http://www.w3.org/2000/svg">
<path d="M34 45V58C34 58.5304 33.7893 59.0391 33.4142 59.4142C33.0391 59.7893 32.5304 60 32 60H2C1.46957 60 0.960859 59.7893 0.585786 59.4142C0.210714 59.0391 0 58.5304 0 58V45C0.000424899 44.1456 0.274435 43.3137 0.781895 42.6263C1.28935 41.9389 2.0036 41.4321 2.82 41.18L13 38H21L31.18 41.13C32.0046 41.3845 32.7248 41.8989 33.2331 42.5964C33.7413 43.2939 34.0103 44.137 34 45Z" fill="#50D9D7"/>
<path d="M18 45H16V60H18V45Z" fill="#00BEBD"/>
<path d="M17 45C15.6739 45 14.4021 44.4732 13.4645 43.5355C12.5268 42.5979 12 41.3261 12 40V37H22V40C22 41.3261 21.4732 42.5979 20.5355 43.5355C19.5979 44.4732 18.3261 45 17 45Z" fill="#EA9807"/>
<path d="M16.9998 45L10.9998 48L10.0898 38.89L12.1798 38.25L16.9998 45Z" fill="#93E6E5"/>
<path d="M23.91 38.89L23 48L17 45L21.82 38.25L23.91 38.89Z" fill="#93E6E5"/>
<path d="M8 22H6V28H8V22Z" fill="#00AAA8"/>
<path d="M6 26H9V34H6C5.73478 34 5.48043 33.8946 5.29289 33.7071C5.10536 33.5196 5 33.2652 5 33V27C5 26.7348 5.10536 26.4804 5.29289 26.2929C5.48043 26.1054 5.73478 26 6 26Z" fill="#50D9D7"/>
<path d="M24 24H7C6.20435 24 5.44129 23.6839 4.87868 23.1213C4.31607 22.5587 4 21.7956 4 21V15H22C22.7956 15 23.5587 15.3161 24.1213 15.8787C24.6839 16.4413 25 17.2044 25 18C25.7956 18 26.5587 18.3161 27.1213 18.8787C27.6839 19.4413 28 20.2044 28 21V28H26V26C26 25.4696 25.7893 24.9609 25.4142 24.5858C25.0391 24.2107 24.5304 24 24 24Z" fill="#00BEBD"/>
<path d="M28 34H25V26H28C28.2652 26 28.5196 26.1054 28.7071 26.2929C28.8946 26.4804 29 26.7348 29 27V33C29 33.2652 28.8946 33.5196 28.7071 33.7071C28.5196 33.8946 28.2652 34 28 34Z" fill="#50D9D7"/>
<path d="M17 40C14.6131 40 12.3239 39.0518 10.636 37.364C8.94821 35.6761 8 33.3869 8 31V24H24C24.5304 24 25.0391 24.2107 25.4142 24.5858C25.7893 24.9609 26 25.4696 26 26V31C26 33.3869 25.0518 35.6761 23.364 37.364C21.6761 39.0518 19.3869 40 17 40Z" fill="#FFAC00"/>
<path d="M14.5499 36.89C14.3335 36.7598 14.1744 36.5526 14.1045 36.3099C14.0346 36.0673 14.0591 35.8072 14.173 35.5819C14.2869 35.3566 14.4819 35.1827 14.7187 35.0951C14.9556 35.0076 15.2168 35.0129 15.4499 35.11C15.9323 35.3466 16.4625 35.4696 16.9999 35.4696C17.5372 35.4696 18.0674 35.3466 18.5499 35.11C18.6677 35.0391 18.7989 34.9932 18.9352 34.9753C19.0715 34.9574 19.2101 34.9678 19.3423 35.0059C19.4744 35.0439 19.5973 35.1089 19.7032 35.1966C19.8091 35.2843 19.8958 35.3929 19.9578 35.5156C20.0199 35.6383 20.056 35.7725 20.0638 35.9098C20.0716 36.0471 20.0511 36.1845 20.0034 36.3135C19.9557 36.4425 19.882 36.5602 19.7867 36.6594C19.6915 36.7586 19.5768 36.8371 19.4499 36.89C18.6889 37.2694 17.8502 37.467 16.9999 37.467C16.1495 37.467 15.3108 37.2694 14.5499 36.89Z" fill="#EA9807"/>
<path d="M28 37H24C23.7348 37 23.4804 36.8946 23.2929 36.7071C23.1054 36.5196 23 36.2652 23 36C23 35.7348 23.1054 35.4804 23.2929 35.2929C23.4804 35.1054 23.7348 35 24 35H27V33C27 32.7348 27.1054 32.4804 27.2929 32.2929C27.4804 32.1054 27.7348 32 28 32C28.2652 32 28.5196 32.1054 28.7071 32.2929C28.8946 32.4804 29 32.7348 29 33V36C29 36.2652 28.8946 36.5196 28.7071 36.7071C28.5196 36.8946 28.2652 37 28 37Z" fill="#F3F3F3"/>
<path d="M61 10V26C61 26.5304 60.7893 27.0391 60.4142 27.4142C60.0391 27.7893 59.5304 28 59 28H41C40.6895 28 40.3833 28.0723 40.1056 28.2111C39.8279 28.35 39.5863 28.5516 39.4 28.8L37.8 30.93C37.7069 31.0542 37.5861 31.155 37.4472 31.2244C37.3084 31.2939 37.1552 31.33 37 31.33C36.8448 31.33 36.6916 31.2939 36.5528 31.2244C36.4139 31.155 36.2931 31.0542 36.2 30.93L34.6 28.8C34.4137 28.5516 34.1721 28.35 33.8944 28.2111C33.6167 28.0723 33.3105 28 33 28C32.4696 28 31.9609 27.7893 31.5858 27.4142C31.2107 27.0391 31 26.5304 31 26V10C31 9.46957 31.2107 8.96086 31.5858 8.58579C31.9609 8.21071 32.4696 8 33 8H59C59.5304 8 60.0391 8.21071 60.4142 8.58579C60.7893 8.96086 61 9.46957 61 10Z" fill="#FFAC00"/>
<path d="M40 12H34V14H40V12Z" fill="white"/>
<path d="M58 12H43V14H58V12Z" fill="white"/>
<path d="M52 19H58V17H52V19Z" fill="white"/>
<path d="M34 19L49 19V17H34V19Z" fill="white"/>
<path d="M40 22H34V24H40V22Z" fill="white"/>
<path d="M58 22H43V24H58V22Z" fill="white"/>
<path d="M29 53H22V55H29V53Z" fill="#00BEBD"/>
<path d="M28 51H26V53H28V51Z" fill="#93E6E5"/>
<path d="M61.0001 10V15.06C59.4597 15.8222 57.7334 16.1273 56.0251 15.9395C54.3168 15.7517 52.698 15.0786 51.3601 14H58.0001V12H49.5301C48.7212 10.8065 48.2165 9.43326 48.0601 8H59.0001C59.5305 8 60.0392 8.21071 60.4143 8.58579C60.7893 8.96086 61.0001 9.46957 61.0001 10Z" fill="#EA9807"/>
<path d="M57.9998 12V14H51.3598C50.6467 13.4355 50.0289 12.7603 49.5298 12H57.9998Z" fill="#F3F3F3"/>
<path d="M57 14C60.866 14 64 10.866 64 7C64 3.13401 60.866 0 57 0C53.134 0 50 3.13401 50 7C50 10.866 53.134 14 57 14Z" fill="white"/>
<path d="M57 12C59.7614 12 62 9.76142 62 7C62 4.23858 59.7614 2 57 2C54.2386 2 52 4.23858 52 7C52 9.76142 54.2386 12 57 12Z" fill="#50D9D7"/>
<path d="M60.6598 10.41C60.1919 10.9127 59.6255 11.3137 58.9958 11.5878C58.3661 11.862 57.6866 12.0035 56.9998 12.0035C56.3131 12.0035 55.6336 11.862 55.0039 11.5878C54.3742 11.3137 53.8078 10.9127 53.3398 10.41C53.6528 9.70019 54.1654 9.0967 54.8153 8.67304C55.4651 8.24937 56.2241 8.0238 56.9998 8.0238C57.7756 8.0238 58.5346 8.24937 59.1844 8.67304C59.8342 9.0967 60.3469 9.70019 60.6598 10.41Z" fill="#00BEBD"/>
<path d="M57 8C58.1046 8 59 7.10457 59 6C59 4.89543 58.1046 4 57 4C55.8954 4 55 4.89543 55 6C55 7.10457 55.8954 8 57 8Z" fill="#00BEBD"/>
</svg>
