<svg width="53" height="65" viewBox="0 0 53 65" fill="none" xmlns="http://www.w3.org/2000/svg">
<path d="M51.12 43.1288C51.551 42.6993 51.8412 42.1488 51.9521 41.5506C52.063 40.9523 51.9893 40.3344 51.7409 39.779C51.4924 39.2235 51.081 38.7568 50.5611 38.4406C50.0412 38.1244 49.4375 37.9738 48.83 38.0088H33V30.0088H23.47C22.7269 30.0083 21.9983 30.2147 21.366 30.6051C20.7336 30.9955 20.2225 31.5542 19.89 32.2188L19.11 33.7988C18.7775 34.4633 18.2664 35.0221 17.634 35.4125C17.0017 35.8028 16.2731 36.0093 15.53 36.0088H13V62.0088H43.83C44.6191 62.0223 45.3842 61.7371 45.972 61.2105C46.5598 60.6839 46.927 59.9546 47 59.1688C47.0218 58.7616 46.9602 58.3542 46.8193 57.9715C46.6783 57.5889 46.4607 57.239 46.18 56.9433C45.8992 56.6475 45.5611 56.4121 45.1862 56.2514C44.8114 56.0908 44.4078 56.0082 44 56.0088H46C46.7957 56.0088 47.5587 55.6927 48.1213 55.1301C48.6839 54.5675 49 53.8044 49 53.0088C49 52.2131 48.6839 51.4501 48.1213 50.8875C47.5587 50.3249 46.7957 50.0088 46 50.0088H48C48.7957 50.0088 49.5587 49.6927 50.1213 49.1301C50.6839 48.5675 51 47.8044 51 47.0088C51 46.2131 50.6839 45.4501 50.1213 44.8875C49.5587 44.3249 48.7957 44.0088 48 44.0088C49.19 44.0088 50.14 44.1088 51.12 43.1288Z" fill="#FFAC00"/>
<path d="M11 32.0088H2C0.89543 32.0088 0 32.9042 0 34.0088V62.0088C0 63.1134 0.89543 64.0088 2 64.0088H11C12.1046 64.0088 13 63.1134 13 62.0088V34.0088C13 32.9042 12.1046 32.0088 11 32.0088Z" fill="#00BEBD"/>
<path d="M21.5399 8.84883C19.7016 10.0397 18.2982 11.7939 17.5399 13.8488L16.9799 15.3588C16.9099 15.5519 16.7821 15.7187 16.6139 15.8365C16.4457 15.9544 16.2453 16.0177 16.0399 16.0177C15.8346 16.0177 15.6342 15.9544 15.466 15.8365C15.2978 15.7187 15.17 15.5519 15.0999 15.3588L14.5399 13.8488C13.7816 11.7939 12.3783 10.0397 10.5399 8.84883C10.3996 8.75817 10.2842 8.63379 10.2043 8.48706C10.1244 8.34032 10.0825 8.17591 10.0825 8.00883C10.0825 7.84174 10.1244 7.67733 10.2043 7.53059C10.2842 7.38386 10.3996 7.25948 10.5399 7.16883C12.3783 5.97794 13.7816 4.22378 14.5399 2.16883L15.0599 0.658826C15.13 0.465775 15.2578 0.298979 15.426 0.181106C15.5942 0.0632332 15.7946 0 15.9999 0C16.2053 0 16.4057 0.0632332 16.5739 0.181106C16.7421 0.298979 16.8699 0.465775 16.9399 0.658826L17.4999 2.16883C18.2582 4.22378 19.6616 5.97794 21.4999 7.16883C21.6425 7.25609 21.7609 7.3777 21.8444 7.52254C21.9278 7.66738 21.9736 7.83082 21.9776 7.99793C21.9816 8.16504 21.9436 8.33047 21.8671 8.47912C21.7907 8.62777 21.6782 8.75487 21.5399 8.84883Z" fill="#FFAC00"/>
<path d="M44.9999 1.47888V10.7689C44.9997 11.141 44.8957 11.5056 44.6997 11.8218C44.5036 12.1381 44.2231 12.3933 43.8899 12.5589L39.8899 14.5589C39.6134 14.6963 39.3087 14.7678 38.9999 14.7678C38.6911 14.7678 38.3865 14.6963 38.1099 14.5589L34.1099 12.5589C33.7767 12.3933 33.4963 12.1381 33.3002 11.8218C33.1041 11.5056 33.0001 11.141 32.9999 10.7689V1.47888C30.9724 2.53766 29.2602 4.11264 28.0361 6.04479C26.8119 7.97695 26.1192 10.1979 26.0279 12.4833C25.9366 14.7688 26.45 17.0379 27.5161 19.0616C28.5822 21.0852 30.1634 22.7917 32.0999 24.0089C32.375 24.1901 32.6012 24.4364 32.7582 24.726C32.9152 25.0156 32.9982 25.3395 32.9999 25.6689V38.0089H44.9999V25.6789C45 25.3478 45.0822 25.0219 45.2393 24.7304C45.3964 24.4389 45.6234 24.191 45.8999 24.0089C47.8365 22.7917 49.4177 21.0852 50.4838 19.0616C51.5499 17.0379 52.0632 14.7688 51.9719 12.4833C51.8806 10.1979 51.1879 7.97695 49.9638 6.04479C48.7397 4.11264 47.0274 2.53766 44.9999 1.47888Z" fill="#00BEBD"/>
<path d="M31 30.0088V36.0088H28C27.7348 36.0088 27.4804 36.1141 27.2929 36.3017C27.1054 36.4892 27 36.7436 27 37.0088C27 37.274 27.1054 37.5284 27.2929 37.7159C27.4804 37.9034 27.7348 38.0088 28 38.0088H33V30.0088H31Z" fill="#EA9706"/>
<path d="M9 62.0088C10.1046 62.0088 11 61.1134 11 60.0088C11 58.9042 10.1046 58.0088 9 58.0088C7.89543 58.0088 7 58.9042 7 60.0088C7 61.1134 7.89543 62.0088 9 62.0088Z" fill="white"/>
<path d="M45 36.0088H33V38.0088H45V36.0088Z" fill="#00AAA8"/>
<path d="M41 36.0088H37V30.0088C37 29.4784 37.2107 28.9696 37.5858 28.5946C37.9609 28.2195 38.4696 28.0088 39 28.0088C39.5304 28.0088 40.0391 28.2195 40.4142 28.5946C40.7893 28.9696 41 29.4784 41 30.0088V36.0088Z" fill="#50D9D7"/>
<path d="M41 36.0088H37V38.0088H41V36.0088Z" fill="#00BEBD"/>
<path d="M52 41.0088C52 41.8044 51.6839 42.5675 51.1213 43.1301C50.5587 43.6927 49.7956 44.0088 49 44.0088H37C36.7348 44.0088 36.4804 43.9034 36.2929 43.7159C36.1054 43.5284 36 43.274 36 43.0088C36 42.7436 36.1054 42.4892 36.2929 42.3017C36.4804 42.1141 36.7348 42.0088 37 42.0088H51C51.2652 42.0088 51.5196 41.9034 51.7071 41.7159C51.8946 41.5284 52 41.274 52 41.0088Z" fill="#EA9706"/>
<path d="M51 47.0088C51 47.8044 50.6839 48.5675 50.1213 49.1301C49.5587 49.6927 48.7956 50.0088 48 50.0088H38C37.7348 50.0088 37.4804 49.9034 37.2929 49.7159C37.1054 49.5284 37 49.274 37 49.0088C37 48.7436 37.1054 48.4892 37.2929 48.3017C37.4804 48.1141 37.7348 48.0088 38 48.0088H50C50.2652 48.0088 50.5196 47.9034 50.7071 47.7159C50.8946 47.5284 51 47.274 51 47.0088Z" fill="#EA9706"/>
<path d="M49 53.0088C49 53.8044 48.6839 54.5675 48.1213 55.1301C47.5587 55.6927 46.7956 56.0088 46 56.0088H38C37.7348 56.0088 37.4804 55.9034 37.2929 55.7159C37.1054 55.5284 37 55.274 37 55.0088C37 54.7436 37.1054 54.4892 37.2929 54.3017C37.4804 54.1141 37.7348 54.0088 38 54.0088H48C48.2652 54.0088 48.5196 53.9034 48.7071 53.7159C48.8946 53.5284 49 53.274 49 53.0088Z" fill="#EA9706"/>
</svg>
