<svg width="136" height="137" viewBox="0 0 136 137" fill="none" xmlns="http://www.w3.org/2000/svg">
<path d="M90.3947 52.6418V53.1644C90.3947 61.3649 97.0408 68.0044 105.235 68.0044C113.717 68.0044 120.597 74.885 120.597 83.3669C120.597 91.8488 113.717 98.7295 105.235 98.7295H60.9693C52.4874 98.7295 45.6068 91.8488 45.6068 83.3669V82.8443C45.6068 74.6438 38.9606 68.0044 30.7668 68.0044C22.2849 68.0044 15.4043 61.1237 15.4043 52.6418C15.4043 44.1599 22.2849 37.2793 30.7668 37.2793H75.0321C83.5207 37.2793 90.3947 44.1599 90.3947 52.6418Z" fill="#B2E6FF"/>
<path d="M76.567 7.33791C76.8215 7.33791 77.0828 7.23741 77.2771 7.04312L82.6034 1.71681C82.9987 1.32153 82.9987 0.68505 82.6034 0.296464C82.2082 -0.0988214 81.5717 -0.0988214 81.1831 0.296464L75.8568 5.62277C75.4615 6.01806 75.4615 6.65453 75.8568 7.04312C76.0511 7.24411 76.3057 7.33791 76.567 7.33791Z" fill="#002B8F"/>
<path d="M81.8864 7.33791C82.141 7.33791 82.4023 7.23741 82.5966 7.04312C82.9919 6.64783 82.9919 6.01136 82.5966 5.62277L77.2703 0.296464C76.875 -0.0988214 76.2385 -0.0988214 75.8499 0.296464C75.4547 0.69175 75.4547 1.32823 75.8499 1.71681L81.1763 7.04312C81.3706 7.24411 81.6318 7.33791 81.8864 7.33791Z" fill="#002B8F"/>
<path d="M117.938 121.475C118.192 121.475 118.453 121.374 118.648 121.18L123.974 115.854C124.369 115.458 124.369 114.822 123.974 114.433C123.579 114.038 122.942 114.038 122.554 114.433L117.227 119.76C116.832 120.155 116.832 120.792 117.227 121.18C117.428 121.374 117.683 121.475 117.938 121.475Z" fill="#002B8F"/>
<path d="M123.264 121.475C123.518 121.475 123.78 121.374 123.974 121.18C124.369 120.785 124.369 120.148 123.974 119.76L118.648 114.433C118.252 114.038 117.616 114.038 117.227 114.433C116.832 114.829 116.832 115.465 117.227 115.854L122.554 121.18C122.748 121.374 123.009 121.475 123.264 121.475Z" fill="#002B8F"/>
<path d="M1.00693 54.3167C1.26152 54.3167 1.52281 54.2162 1.71711 54.0219L7.04338 48.6956C7.43867 48.3003 7.43867 47.6638 7.04338 47.2752C6.64809 46.8799 6.01162 46.8799 5.62303 47.2752L0.296762 52.6015C-0.0985241 52.9968 -0.0985241 53.6333 0.296762 54.0219C0.491055 54.2162 0.752343 54.3167 1.00693 54.3167Z" fill="#002B8F"/>
<path d="M6.33321 54.3167C6.5878 54.3167 6.84909 54.2162 7.04338 54.0219C7.43867 53.6266 7.43867 52.9901 7.04338 52.6015L1.71711 47.2752C1.32182 46.8799 0.685347 46.8799 0.296762 47.2752C-0.0985241 47.6705 -0.0985241 48.307 0.296762 48.6956L5.62303 54.0219C5.81733 54.2162 6.07192 54.3167 6.33321 54.3167Z" fill="#002B8F"/>
<path d="M60.5339 11.6456C62.2758 11.6456 63.6895 10.2253 63.6895 8.49006C63.6895 6.75482 62.2691 5.33447 60.5339 5.33447C58.7986 5.33447 57.3783 6.75482 57.3783 8.49006C57.3783 10.2253 58.7919 11.6456 60.5339 11.6456ZM60.5339 7.3377C61.1703 7.3377 61.6795 7.85358 61.6795 8.48336C61.6795 9.11314 61.1636 9.62902 60.5339 9.62902C59.9041 9.62902 59.3882 9.11314 59.3882 8.48336C59.3882 7.85358 59.8974 7.3377 60.5339 7.3377Z" fill="#002B8F"/>
<path d="M90.9108 136.007C92.6528 136.007 94.0664 134.586 94.0664 132.851C94.0664 131.116 92.6461 129.696 90.9108 129.696C89.1756 129.696 87.7552 131.116 87.7552 132.851C87.7552 134.586 89.1689 136.007 90.9108 136.007ZM90.9108 131.705C91.5473 131.705 92.0565 132.221 92.0565 132.851C92.0565 133.481 91.5406 133.997 90.9108 133.997C90.2811 133.997 89.7652 133.481 89.7652 132.851C89.7652 132.221 90.2744 131.705 90.9108 131.705Z" fill="#002B8F"/>
<path d="M132.844 54.9599C134.586 54.9599 136 53.5395 136 51.8043C136 50.069 134.58 48.6487 132.844 48.6487C131.109 48.6487 129.689 50.069 129.689 51.8043C129.689 53.5395 131.109 54.9599 132.844 54.9599ZM132.844 50.6519C133.481 50.6519 133.99 51.1678 133.99 51.7976C133.99 52.4273 133.474 52.9432 132.844 52.9432C132.215 52.9432 131.699 52.4273 131.699 51.7976C131.699 51.1678 132.215 50.6519 132.844 50.6519Z" fill="#002B8F"/>
<path d="M20.6508 86.3481L15.4049 91.594L33.6952 101.979L33.9096 102.099L34.0302 102.314L44.4081 120.597L49.6541 115.351L47.0076 99.8012L57.7607 91.0313C64.2528 85.7184 70.631 80.2715 76.8885 74.6973C83.8228 68.5268 90.603 62.1821 97.229 55.6766C98.6494 54.2898 100.07 52.8896 101.47 51.4826C103.714 49.2382 105.564 46.6722 106.984 43.8784C108.398 41.0846 109.369 38.0697 109.851 34.9342C110.287 32.0801 109.516 29.6749 107.929 28.0804C106.334 26.4858 103.929 25.722 101.075 26.1575C97.9392 26.6332 94.9243 27.6114 92.1305 29.025C89.3367 30.4454 86.7707 32.2945 84.5263 34.5389C77.5786 41.4866 70.7985 48.6151 64.2059 55.9044C57.62 63.1938 51.2084 70.6439 44.9843 78.2548L36.2009 89.0012L20.6508 86.3481Z" fill="white"/>
<path d="M80.6464 38.4583C82.6564 36.6225 84.8874 35.0816 87.2926 33.8622C90.0864 32.4486 93.1012 31.4704 96.2367 31.0014C99.0908 30.5659 101.496 31.3364 103.084 32.9243C104.678 34.5188 105.449 36.9307 105.013 39.7781C104.531 42.9136 103.56 45.9218 102.153 48.7223C100.927 51.1342 99.3723 53.3853 97.5298 55.4019C98.8497 54.1022 100.176 52.7957 101.483 51.4893C103.727 49.2449 105.57 46.6789 106.99 43.8851C108.404 41.0913 109.382 38.0764 109.857 34.9409C110.286 32.0868 109.516 29.6816 107.928 28.0937C106.333 26.4992 103.921 25.7354 101.074 26.1642C97.9452 26.6466 94.9303 27.6181 92.1298 29.025C89.3427 30.4453 86.77 32.2945 84.5323 34.5389C83.2258 35.8387 81.9328 37.1451 80.6464 38.4583Z" fill="#B2E6FF"/>
<path d="M44.4146 121.609C44.6826 121.609 44.9372 121.502 45.1248 121.314L50.3707 116.068C50.5985 115.841 50.7057 115.512 50.6521 115.191L48.1062 100.217L58.397 91.8085C64.869 86.509 71.3142 81.0085 77.5516 75.4477C84.3988 69.3509 91.2526 62.9393 97.9256 56.3936C99.3459 55.0068 100.766 53.5998 102.173 52.1929C104.471 49.8948 106.387 47.2484 107.868 44.3341C109.342 41.413 110.34 38.3043 110.829 35.0884C111.298 32.0065 110.514 29.2663 108.618 27.377C106.722 25.4809 103.982 24.6971 100.907 25.1661C97.6911 25.6551 94.5757 26.6534 91.6613 28.1273C88.7469 29.608 86.1005 31.5241 83.8025 33.8221C76.895 40.7296 70.0479 47.9251 63.4486 55.2212C56.8695 62.4971 50.3908 70.0343 44.1935 77.605L35.7786 87.8959L20.8114 85.35C20.4898 85.2964 20.1615 85.3969 19.9337 85.6313L14.6878 90.8773C14.4667 91.0984 14.3595 91.4132 14.3997 91.7214C14.4399 92.0296 14.6275 92.3043 14.9022 92.4584L33.1724 102.83L43.537 121.093C43.6911 121.368 43.9657 121.549 44.2739 121.596C44.3275 121.609 44.3744 121.609 44.4146 121.609ZM48.5886 115.016L44.6424 118.963L34.7938 101.61C34.7067 101.456 34.5727 101.322 34.4186 101.235L17.0528 91.373L20.999 87.4269L36.0332 89.9862C36.395 90.0465 36.7501 89.9125 36.9779 89.6311L45.7613 78.8847C51.9385 71.3341 58.397 63.8303 64.9494 56.5745C71.5286 49.3053 78.3556 42.1298 85.2362 35.2492C87.3869 33.0986 89.8591 31.303 92.5859 29.9229C95.3127 28.5427 98.2204 27.6115 101.229 27.1559C103.661 26.7807 105.784 27.3703 107.218 28.7973C108.645 30.2244 109.235 32.3549 108.86 34.7869C108.397 37.7951 107.466 40.7028 106.093 43.4296C104.712 46.1564 102.917 48.6286 100.766 50.7725C99.366 52.1728 97.9524 53.573 96.532 54.9532C89.8792 61.4787 83.0454 67.8636 76.2251 73.9403C70.0077 79.481 63.5826 84.9681 57.1308 90.2475L46.3844 99.0309C46.103 99.2587 45.969 99.6204 46.0293 99.9755L48.5886 115.016Z" fill="#002B8F"/>
<path d="M92.3778 90.8773L97.4294 95.9289L110.038 83.32C111.157 82.2011 111.157 80.3855 110.038 79.2666L109.04 78.2683C107.921 77.1495 106.106 77.1495 104.987 78.2683L92.3778 90.8773Z" fill="white"/>
<path d="M97.4226 96.927C97.6772 96.927 97.9385 96.8265 98.1328 96.6322L110.742 84.0233C111.472 83.293 111.874 82.3216 111.874 81.2898C111.874 80.258 111.472 79.2866 110.742 78.5563L109.744 77.558C109.013 76.8278 108.042 76.4258 107.01 76.4258C105.978 76.4258 105.007 76.8278 104.276 77.558L91.6676 90.167C91.48 90.3546 91.3728 90.6092 91.3728 90.8772C91.3728 91.1451 91.48 91.3997 91.6676 91.5873L96.7192 96.6389C96.9068 96.8265 97.1681 96.927 97.4226 96.927ZM107.01 78.4357C107.486 78.4357 107.961 78.6166 108.323 78.9784L109.321 79.9767C110.045 80.7002 110.045 81.8794 109.321 82.6097L97.4226 94.5084L93.7981 90.8839L105.697 78.9851C106.059 78.6166 106.534 78.4357 107.01 78.4357Z" fill="#002B8F"/>
<path d="M45.1378 43.6372L40.0862 38.5855L52.6952 25.9766C53.814 24.8577 55.6296 24.8577 56.7485 25.9766L57.7468 26.9749C58.8657 28.0937 58.8657 29.9094 57.7468 31.0282L45.1378 43.6372Z" fill="white"/>
<path d="M45.138 44.6421C45.3926 44.6421 45.6539 44.5416 45.8482 44.3473L58.4571 31.7384C59.1874 31.0081 59.5894 30.0367 59.5894 29.0049C59.5894 27.9731 59.1874 27.0017 58.4571 26.2714L57.4588 25.2731C56.7285 24.5429 55.7571 24.1409 54.7253 24.1409C53.6936 24.1409 52.7221 24.5429 51.9918 25.2731L39.3829 37.8821C38.9876 38.2774 38.9876 38.9138 39.3829 39.3024L44.4345 44.354C44.6221 44.5416 44.8834 44.6421 45.138 44.6421ZM54.7253 26.1441C55.201 26.1441 55.6767 26.325 56.0385 26.6868L57.0368 27.685C57.7603 28.4086 57.7603 29.5878 57.0368 30.318L45.138 42.2168L41.5134 38.5922L53.4122 26.6935C53.7739 26.325 54.2496 26.1441 54.7253 26.1441Z" fill="#002B8F"/>
<path d="M34.0365 103.325C34.2643 103.325 34.492 103.252 34.6796 103.091C35.0548 102.783 35.1553 102.247 34.9141 101.818L34.7935 101.603C34.7064 101.449 34.5724 101.315 34.4184 101.228L34.1973 101.101C33.7685 100.86 33.2392 100.96 32.9243 101.336C32.6161 101.711 32.6161 102.26 32.931 102.629C32.998 102.709 33.0717 102.783 33.1521 102.863C33.2258 102.937 33.3062 103.017 33.3933 103.084C33.5742 103.245 33.8087 103.325 34.0365 103.325Z" fill="#002B8F"/>
<path d="M105.134 40.1598C105.255 40.1598 105.375 40.1397 105.489 40.0928C106.005 39.8985 106.273 39.3157 106.072 38.7998C105.302 36.7697 104.136 34.9608 102.595 33.4199C101.054 31.8789 99.2451 30.7132 97.2151 29.9427C96.6992 29.7417 96.1163 30.0097 95.9221 30.5256C95.7278 31.0415 95.989 31.6243 96.5049 31.8186C98.267 32.4886 99.8414 33.5003 101.175 34.8402C102.515 36.1802 103.526 37.7479 104.196 39.5099C104.344 39.9119 104.726 40.1598 105.134 40.1598Z" fill="#002B8F"/>
<path d="M76.8879 74.6904L77.0755 75.0254L99.1244 113.837L99.312 114.179L102.675 110.816C103.03 110.46 103.359 110.072 103.647 109.67C105.067 107.687 105.657 105.201 105.241 102.756L97.2284 55.6765C92.0561 60.7415 86.8035 65.7128 81.4504 70.5768C79.9363 71.9636 78.4154 73.3304 76.8879 74.6904Z" fill="white"/>
<path d="M81.4504 70.5768L81.4772 70.6237L103.519 109.442L103.647 109.67C105.067 107.687 105.657 105.201 105.241 102.756L97.2284 55.6765C92.0561 60.7415 86.8035 65.7128 81.4504 70.5768Z" fill="#00A4FF"/>
<path d="M99.3122 115.184C99.5802 115.184 99.8348 115.077 100.022 114.889L103.386 111.526C105.724 109.188 106.789 105.844 106.233 102.588L98.2135 55.5092C98.1532 55.1407 97.8852 54.8392 97.5301 54.7186C97.175 54.6047 96.7864 54.6985 96.5184 54.9598C89.8656 61.4854 83.0318 67.8702 76.2115 73.9469C75.8564 74.2618 75.7693 74.7844 76.0038 75.1931L98.4278 114.675C98.5819 114.949 98.8566 115.13 99.1648 115.177C99.2251 115.184 99.2653 115.184 99.3122 115.184ZM96.5586 57.7402L104.257 102.93C104.699 105.55 103.848 108.23 101.965 110.112L99.5333 112.544L78.1611 74.9117C84.3383 69.3911 90.5222 63.6226 96.5586 57.7402Z" fill="#002B8F"/>
<path d="M21.8293 36.6964L22.171 36.884L60.9759 58.9329L61.3109 59.1205C62.671 57.5929 64.0444 56.0721 65.4246 54.5579C70.2953 49.2048 75.2665 43.9522 80.3315 38.78L33.2524 30.7604C30.807 30.345 28.3214 30.9346 26.3382 32.3617C25.9363 32.6497 25.5477 32.978 25.1926 33.3331L21.8293 36.6964Z" fill="white"/>
<path d="M26.3382 32.3617L26.566 32.489L65.3777 54.5311L65.4246 54.5579C70.2953 49.2048 75.2665 43.9522 80.3315 38.78L33.2524 30.7604C30.807 30.345 28.3214 30.9346 26.3382 32.3617Z" fill="#00A4FF"/>
<path d="M61.311 60.125C61.5924 60.125 61.8671 60.0111 62.0614 59.79C68.1381 52.963 74.5229 46.1359 81.0485 39.4831C81.3098 39.2151 81.4036 38.8265 81.2897 38.4714C81.1758 38.1163 80.8743 37.855 80.5058 37.788L33.4266 29.7684C30.1639 29.2191 26.8274 30.2776 24.4892 32.6158L21.1259 35.9791C20.9048 36.2002 20.7976 36.5151 20.8378 36.8233C20.878 37.1315 21.0656 37.4062 21.3403 37.5603L60.8219 59.9843C60.976 60.0848 61.1435 60.125 61.311 60.125ZM78.2748 39.4496C72.3924 45.4928 66.6239 51.6699 61.1033 57.8471L23.4708 36.4749L25.9028 34.0429C27.7788 32.167 30.4654 31.3094 33.085 31.7516L78.2748 39.4496Z" fill="#002B8F"/>
<path d="M27.2969 108.712C26.044 107.459 26.044 105.422 27.2969 104.169L35.8793 95.5871C37.1321 94.3342 39.1688 94.3342 40.4217 95.5871C41.6745 96.84 41.6745 98.8767 40.4217 100.13L31.8393 108.712C30.5864 109.965 28.5564 109.965 27.2969 108.712Z" fill="white"/>
<path d="M27.2969 108.712C26.044 107.459 26.044 105.422 27.2969 104.169L35.8793 95.5871C37.1321 94.3342 39.1688 94.3342 40.4217 95.5871C41.6745 96.84 41.6745 98.8767 40.4217 100.13L31.8393 108.712C30.5864 109.965 28.5564 109.965 27.2969 108.712Z" fill="#B2E6FF"/>
<path d="M29.5675 110.661C30.693 110.661 31.7516 110.226 32.5488 109.429L41.1312 100.846C42.7727 99.2048 42.7727 96.5249 41.1312 94.8834C39.4831 93.242 36.8099 93.242 35.1685 94.8834L26.5861 103.466C25.7888 104.263 25.3533 105.322 25.3533 106.447C25.3533 107.573 25.7888 108.631 26.5861 109.429C27.3834 110.219 28.4419 110.661 29.5675 110.661ZM38.1499 95.6539C38.7126 95.6539 39.2821 95.8683 39.7109 96.2971C40.5684 97.1546 40.5684 98.5616 39.7109 99.4192L31.1285 108.002C30.291 108.832 28.8372 108.832 28.0064 108.002C27.591 107.586 27.3632 107.03 27.3632 106.441C27.3632 105.851 27.591 105.295 28.0064 104.879L36.5888 96.2971C37.0176 95.8683 37.5871 95.6539 38.1499 95.6539Z" fill="#002B8F"/>
<path d="M87.3599 39.7982C87.6144 39.7982 87.8757 39.6977 88.07 39.5034L89.4301 38.1433C89.8254 37.748 89.8254 37.1116 89.4301 36.723C89.0348 36.3277 88.3983 36.3277 88.0098 36.723L86.6497 38.083C86.2544 38.4783 86.2544 39.1148 86.6497 39.5034C86.844 39.7044 87.0986 39.7982 87.3599 39.7982Z" fill="#002B8F"/>
<path d="M83.1724 43.9857C83.4269 43.9857 83.6882 43.8852 83.8825 43.6909L85.2426 42.3308C85.6379 41.9355 85.6379 41.2991 85.2426 40.9105C84.8473 40.5152 84.2108 40.5152 83.8223 40.9105L82.4622 42.2705C82.0669 42.6658 82.0669 43.3023 82.4622 43.6909C82.6565 43.8919 82.9178 43.9857 83.1724 43.9857Z" fill="#002B8F"/>
<path d="M78.9849 48.1727C79.2394 48.1727 79.5007 48.0722 79.695 47.8779L81.0551 46.5178C81.4504 46.1225 81.4504 45.4861 81.0551 45.0975C80.6598 44.7022 80.0233 44.7022 79.6348 45.0975L78.2747 46.4575C77.8794 46.8528 77.8794 47.4893 78.2747 47.8779C78.469 48.0789 78.7303 48.1727 78.9849 48.1727Z" fill="#002B8F"/>
<path d="M74.7978 52.3602C75.0524 52.3602 75.3137 52.2597 75.508 52.0654L76.8681 50.7053C77.2634 50.31 77.2634 49.6736 76.8681 49.285C76.4728 48.8897 75.8363 48.8897 75.4477 49.285L74.0877 50.645C73.6924 51.0403 73.6924 51.6768 74.0877 52.0654C74.282 52.2597 74.5433 52.3602 74.7978 52.3602Z" fill="#002B8F"/>
<path d="M97.2148 49.6605C97.4694 49.6605 97.7307 49.56 97.925 49.3657L99.2851 48.0056C99.6804 47.6103 99.6804 46.9739 99.2851 46.5853C98.8898 46.19 98.2533 46.19 97.8647 46.5853L96.5047 47.9453C96.1094 48.3406 96.1094 48.9771 96.5047 49.3657C96.699 49.56 96.9602 49.6605 97.2148 49.6605Z" fill="#002B8F"/>
<path d="M93.0278 53.8477C93.2824 53.8477 93.5437 53.7472 93.738 53.5529L95.0981 52.1929C95.4934 51.7976 95.4934 51.1611 95.0981 50.7725C94.7028 50.3773 94.0663 50.3773 93.6777 50.7725L92.3177 52.1326C91.9224 52.5279 91.9224 53.1643 92.3177 53.5529C92.5119 53.7472 92.7732 53.8477 93.0278 53.8477Z" fill="#002B8F"/>
<path d="M88.8403 58.0282C89.0949 58.0282 89.3562 57.9277 89.5505 57.7334L90.9106 56.3733C91.3059 55.978 91.3059 55.3415 90.9106 54.953C90.5153 54.5577 89.8788 54.5577 89.4902 54.953L88.1302 56.313C87.7349 56.7083 87.7349 57.3448 88.1302 57.7334C88.3244 57.9344 88.5857 58.0282 88.8403 58.0282Z" fill="#002B8F"/>
<path d="M84.6528 62.2156C84.9074 62.2156 85.1687 62.1151 85.363 61.9208L86.7231 60.5607C87.1184 60.1655 87.1184 59.529 86.7231 59.1404C86.3278 58.7518 85.6913 58.7451 85.3027 59.1404L83.9427 60.5004C83.5474 60.8957 83.5474 61.5322 83.9427 61.9208C84.1436 62.1218 84.3982 62.2156 84.6528 62.2156Z" fill="#002B8F"/>
<path d="M28.8983 73.1899C29.1529 73.1899 29.4142 73.0894 29.6085 72.8951L41.266 61.2375C41.6613 60.8422 41.6613 60.2057 41.266 59.8172C40.8708 59.4286 40.2343 59.4219 39.8457 59.8172L28.1881 71.4747C27.7929 71.87 27.7929 72.5065 28.1881 72.8951C28.3891 73.0961 28.6437 73.1899 28.8983 73.1899Z" fill="#002B8F"/>
<path d="M20.3555 68.6676C20.6101 68.6676 20.8714 68.5671 21.0656 68.3728L29.6078 59.8306C30.0031 59.4353 30.0031 58.7988 29.6078 58.4102C29.2125 58.0149 28.5761 58.0149 28.1875 58.4102L19.6453 66.9524C19.25 67.3477 19.25 67.9842 19.6453 68.3728C19.8463 68.5738 20.1009 68.6676 20.3555 68.6676Z" fill="#002B8F"/>
<path d="M63.8241 108.115C64.0786 108.115 64.34 108.015 64.5343 107.821L76.1918 96.1631C76.5871 95.7678 76.5871 95.1313 76.1918 94.7428C75.7965 94.3475 75.1601 94.3475 74.7715 94.7428L63.1139 106.4C62.7186 106.796 62.7186 107.432 63.1139 107.821C63.3082 108.015 63.5695 108.115 63.8241 108.115Z" fill="#002B8F"/>
<path d="M68.3462 116.658C68.6007 116.658 68.8621 116.557 69.0564 116.363L77.5986 107.821C77.9938 107.426 77.9938 106.789 77.5986 106.4C77.2033 106.005 76.5668 106.005 76.1782 106.4L67.636 114.943C67.2407 115.338 67.2407 115.974 67.636 116.363C67.8303 116.557 68.0916 116.658 68.3462 116.658Z" fill="#002B8F"/>
</svg>
