<svg width="64" height="64" viewBox="0 0 64 64" fill="none" xmlns="http://www.w3.org/2000/svg">
<g clip-path="url(#clip0_92_21772)">
<path d="M40 37V57H4V37C4.00042 36.1456 4.27443 35.3137 4.78189 34.6263C5.28935 33.9389 6.0036 33.4321 6.82 33.18L17 30H27L37.18 33.13C38.0046 33.3845 38.7248 33.8989 39.2331 34.5964C39.7413 35.2939 40.0103 36.137 40 37Z" fill="#00BEBD"/>
<path d="M12 13H9V19H12V13Z" fill="#00AAA8"/>
<path d="M30 14H11C9.93913 14 8.92172 13.5786 8.17157 12.8284C7.42143 12.0783 7 11.0609 7 10V3H28C28.7956 3 29.5587 3.31607 30.1213 3.87868C30.6839 4.44129 31 5.20435 31 6C32.0609 6 33.0783 6.42143 33.8284 7.17157C34.5786 7.92172 35 8.93913 35 10V17H32V16C32 15.4696 31.7893 14.9609 31.4142 14.5858C31.0391 14.2107 30.5304 14 30 14Z" fill="#00BEBD"/>
<path d="M34 24H31V16H34C34.5304 16 35.0391 16.2107 35.4142 16.5858C35.7893 16.9609 36 17.4696 36 18V22C36 22.5304 35.7893 23.0391 35.4142 23.4142C35.0391 23.7893 34.5304 24 34 24Z" fill="#50D9D7"/>
<path d="M10 16H13V25H10C9.46957 25 8.96086 24.7893 8.58579 24.4142C8.21071 24.0391 8 23.5304 8 23V18C8 17.4696 8.21071 16.9609 8.58579 16.5858C8.96086 16.2107 9.46957 16 10 16Z" fill="#50D9D7"/>
<path d="M22 36C20.6739 36 19.4021 35.4732 18.4645 34.5355C17.5268 33.5979 17 32.3261 17 31V28H27V31C27 32.3261 26.4732 33.5979 25.5355 34.5355C24.5979 35.4732 23.3261 36 22 36Z" fill="#EA9706"/>
<path d="M22 32C19.3478 32 16.8043 30.9464 14.9289 29.0711C13.0536 27.1957 12 24.6522 12 22V14H30C30.5304 14 31.0391 14.2107 31.4142 14.5858C31.7893 14.9609 32 15.4696 32 16V22C32 24.6522 30.9464 27.1957 29.0711 29.0711C27.1957 30.9464 24.6522 32 22 32Z" fill="#FFAC00"/>
<path d="M32 29H27C26.7348 29 26.4804 28.8946 26.2929 28.7071C26.1054 28.5196 26 28.2652 26 28C26 27.7348 26.1054 27.4804 26.2929 27.2929C26.4804 27.1054 26.7348 27 27 27H32C32.2652 27 32.5196 26.8946 32.7071 26.7071C32.8946 26.5196 33 26.2652 33 26V23C33 22.7348 33.1054 22.4804 33.2929 22.2929C33.4804 22.1054 33.7348 22 34 22C34.2652 22 34.5196 22.1054 34.7071 22.2929C34.8946 22.4804 35 22.7348 35 23V26C35 26.7956 34.6839 27.5587 34.1213 28.1213C33.5587 28.6839 32.7956 29 32 29Z" fill="#F3F3F3"/>
<path d="M19.5499 28.8899C19.3335 28.7597 19.1744 28.5525 19.1045 28.3099C19.0346 28.0673 19.0591 27.8072 19.173 27.5819C19.287 27.3565 19.4819 27.1826 19.7187 27.0951C19.9556 27.0076 20.2168 27.0129 20.4499 27.1099C20.9323 27.3465 21.4625 27.4696 21.9999 27.4696C22.5372 27.4696 23.0674 27.3465 23.5499 27.1099C23.7829 27.0129 24.0441 27.0076 24.281 27.0951C24.5178 27.1826 24.7128 27.3565 24.8267 27.5819C24.9406 27.8072 24.9651 28.0673 24.8952 28.3099C24.8253 28.5525 24.6662 28.7597 24.4499 28.8899C23.6889 29.2694 22.8502 29.4669 21.9999 29.4669C21.1495 29.4669 20.3108 29.2694 19.5499 28.8899Z" fill="#EA9706"/>
<path d="M1 60H43C43.2652 60 43.5196 60.1054 43.7071 60.2929C43.8946 60.4804 44 60.7348 44 61V62C44 62.5304 43.7893 63.0391 43.4142 63.4142C43.0391 63.7893 42.5304 64 42 64H2C1.46957 64 0.960859 63.7893 0.585786 63.4142C0.210714 63.0391 0 62.5304 0 62V61C0 60.7348 0.105357 60.4804 0.292893 60.2929C0.48043 60.1054 0.734784 60 1 60Z" fill="#D9D9D9"/>
<path d="M43 36V60H1V36C1 35.4696 1.21071 34.9609 1.58579 34.5858C1.96086 34.2107 2.46957 34 3 34H41C41.5304 34 42.0391 34.2107 42.4142 34.5858C42.7893 34.9609 43 35.4696 43 36Z" fill="#F3F3F3"/>
<path d="M24.6702 51C24.0928 51.5092 23.3808 51.8409 22.6196 51.9555C21.8584 52.07 21.0803 51.9625 20.3787 51.6458C19.677 51.329 19.0817 50.8166 18.6641 50.1699C18.2465 49.5232 18.0244 48.7698 18.0244 48C18.0244 47.2302 18.2465 46.4768 18.6641 45.8301C19.0817 45.1834 19.677 44.671 20.3787 44.3543C21.0803 44.0375 21.8584 43.93 22.6196 44.0445C23.3808 44.1591 24.0928 44.4908 24.6702 45C23.8745 45 23.1115 45.3161 22.5488 45.8787C21.9862 46.4413 21.6702 47.2044 21.6702 48C21.6702 48.7957 21.9862 49.5587 22.5488 50.1213C23.1115 50.6839 23.8745 51 24.6702 51Z" fill="#93E6E5"/>
<path d="M49.37 0.0999658C47.3018 0.357216 45.3258 1.10795 43.6085 2.28887C41.8912 3.46979 40.483 5.04629 39.5027 6.88545C38.5223 8.72461 37.9985 10.7725 37.9754 12.8565C37.9523 14.9405 38.4306 16.9995 39.37 18.86C39.5648 19.2067 39.6518 19.6036 39.62 20L39.16 23.69C39.1404 23.8417 39.1558 23.9959 39.2052 24.1407C39.2545 24.2856 39.3364 24.4171 39.4446 24.5253C39.5528 24.6335 39.6844 24.7154 39.8292 24.7648C39.974 24.8141 40.1282 24.8296 40.28 24.81C44.21 24.32 44.38 24.18 45.14 24.57C46.9542 25.4959 48.9605 25.9826 50.9973 25.9909C53.0341 25.9991 55.0444 25.5286 56.866 24.6174C58.6876 23.7061 60.2696 22.3796 61.4844 20.7447C62.6992 19.1099 63.5129 17.2124 63.8599 15.2054C64.2068 13.1983 64.0773 11.1378 63.4818 9.19002C62.8863 7.24221 61.8414 5.46158 60.4314 3.9917C59.0214 2.52182 57.2858 1.40382 55.3644 0.727822C53.443 0.0518286 51.3897 -0.163237 49.37 0.0999658Z" fill="#FFAC00"/>
<path d="M47 10V12H49V22H53V10H47Z" fill="white"/>
<path d="M51 8C52.1046 8 53 7.10457 53 6C53 4.89543 52.1046 4 51 4C49.8954 4 49 4.89543 49 6C49 7.10457 49.8954 8 51 8Z" fill="white"/>
<path d="M43 37V59C40.0826 59 37.2847 57.8411 35.2218 55.7782C33.1589 53.7153 32 50.9174 32 48C32 45.0826 33.1589 42.2847 35.2218 40.2218C37.2847 38.1589 40.0826 37 43 37Z" fill="#D9D9D9"/>
<path d="M43 57C47.9706 57 52 52.9706 52 48C52 43.0294 47.9706 39 43 39C38.0294 39 34 43.0294 34 48C34 52.9706 38.0294 57 43 57Z" fill="white"/>
<path d="M43 55C46.866 55 50 51.866 50 48C50 44.134 46.866 41 43 41C39.134 41 36 44.134 36 48C36 51.866 39.134 55 43 55Z" fill="#00BEBD"/>
<path d="M39 49C39.5523 49 40 48.5523 40 48C40 47.4477 39.5523 47 39 47C38.4477 47 38 47.4477 38 48C38 48.5523 38.4477 49 39 49Z" fill="#F3F3F3"/>
<path d="M43 49C43.5523 49 44 48.5523 44 48C44 47.4477 43.5523 47 43 47C42.4477 47 42 47.4477 42 48C42 48.5523 42.4477 49 43 49Z" fill="#F3F3F3"/>
<path d="M47 49C47.5523 49 48 48.5523 48 48C48 47.4477 47.5523 47 47 47C46.4477 47 46 47.4477 46 48C46 48.5523 46.4477 49 47 49Z" fill="#F3F3F3"/>
</g>
<defs>
<clipPath id="clip0_92_21772">
<rect width="64" height="64" fill="white"/>
</clipPath>
</defs>
</svg>
