<svg width="31" height="31" viewBox="0 0 31 31" fill="none" xmlns="http://www.w3.org/2000/svg">
<path d="M15.4853 0.916656C7.43525 0.916656 0.916504 7.44999 0.916504 15.5C0.916504 23.55 7.43525 30.0833 15.4853 30.0833C23.5498 30.0833 30.0832 23.55 30.0832 15.5C30.0832 7.44999 23.5498 0.916656 15.4853 0.916656ZM25.5915 9.66666H21.2894C20.8228 7.84374 20.1519 6.09374 19.2769 4.47499C21.9603 5.39374 24.1915 7.26041 25.5915 9.66666ZM15.4998 3.89166C16.7103 5.64166 17.6582 7.58124 18.2853 9.66666H12.7144C13.3415 7.58124 14.2894 5.64166 15.4998 3.89166ZM4.21234 18.4167C3.979 17.4833 3.83317 16.5062 3.83317 15.5C3.83317 14.4937 3.979 13.5167 4.21234 12.5833H9.1415C9.02484 13.5458 8.93734 14.5083 8.93734 15.5C8.93734 16.4917 9.02484 17.4542 9.1415 18.4167H4.21234ZM5.40817 21.3333H9.71025C10.1769 23.1562 10.8478 24.9062 11.7228 26.525C9.03942 25.6062 6.80817 23.7542 5.40817 21.3333ZM9.71025 9.66666H5.40817C6.80817 7.24582 9.03942 5.39374 11.7228 4.47499C10.8478 6.09374 10.1769 7.84374 9.71025 9.66666ZM15.4998 27.1083C14.2894 25.3583 13.3415 23.4187 12.7144 21.3333H18.2853C17.6582 23.4187 16.7103 25.3583 15.4998 27.1083ZM18.9123 18.4167H12.0873C11.9561 17.4542 11.854 16.4917 11.854 15.5C11.854 14.5083 11.9561 13.5312 12.0873 12.5833H18.9123C19.0436 13.5312 19.1457 14.5083 19.1457 15.5C19.1457 16.4917 19.0436 17.4542 18.9123 18.4167ZM19.2769 26.525C20.1519 24.9062 20.8228 23.1562 21.2894 21.3333H25.5915C24.1915 23.7396 21.9603 25.6062 19.2769 26.525ZM21.8582 18.4167C21.9748 17.4542 22.0623 16.4917 22.0623 15.5C22.0623 14.5083 21.9748 13.5458 21.8582 12.5833H26.7873C27.0207 13.5167 27.1665 14.4937 27.1665 15.5C27.1665 16.5062 27.0207 17.4833 26.7873 18.4167H21.8582Z" fill="#23D4CE"/>
</svg>
