<svg width="172" height="172" viewBox="0 0 172 172" fill="none" xmlns="http://www.w3.org/2000/svg">
<path d="M12.4772 53.6885C13.1641 43.1129 21.6667 34.8249 32.2516 34.3005C47.5793 33.5411 69.4869 32.6252 85.9935 32.6252C102.5 32.6252 124.408 33.5411 139.735 34.3005C150.32 34.8249 158.823 43.1129 159.51 53.6885C160.168 63.8207 160.817 76.288 160.817 86.0703C160.817 95.8526 160.168 108.32 159.51 118.452C158.823 129.028 150.32 137.316 139.735 137.84C124.408 138.6 102.5 139.515 85.9935 139.515C69.4869 139.515 47.5793 138.6 32.2516 137.84C21.6667 137.316 13.1641 129.028 12.4772 118.452C11.819 108.32 11.1704 95.8526 11.1704 86.0703C11.1704 76.288 11.819 63.8207 12.4772 53.6885Z" fill="#23D4CE"/>
<path d="M69.96 64.6921V107.448L112.716 86.0702L69.96 64.6921Z" fill="white"/>
</svg>
